<svg width="223" height="40" viewBox="0 0 223 40" fill="none" xmlns="http://www.w3.org/2000/svg">
<path d="M52.3516 34.113V26.9268H55.6718L57.3546 26.9723H70.1352L71.0903 26.9268H75.8659V34.113H72.0909V30.4744H56.0811V34.113H52.3516ZM56.1721 12.7363H72.8186V29.2009H68.8162V14.4647L70.6355 16.284H58.3552L60.0381 14.965C60.129 15.7382 60.1745 16.5114 60.22 17.2846C60.2655 18.0578 60.2655 18.7855 60.2655 19.4677C60.2655 21.378 60.129 23.0153 59.8107 24.3343C59.4923 25.6533 59.0829 26.6539 58.4462 27.3816C57.8549 28.0639 57.1272 28.4277 56.2176 28.4277L54.5802 27.0178C55.2624 26.2446 55.7173 25.1985 56.0356 23.834C56.354 22.4696 56.5359 20.7412 56.5359 18.649C56.5359 17.7394 56.4905 16.7843 56.445 15.7836C56.354 14.783 56.263 13.7824 56.1721 12.7363Z" fill="#182539"/>
<path d="M78.3672 30.4744V12.7363H82.2787V28.4277L81.0506 28.2003L92.2393 12.7363H97.4698V30.4744H93.6038V14.5556L94.8318 14.783L83.4612 30.4744H78.3672Z" fill="#182539"/>
<path d="M101.156 12.7363H105.159V30.4744H101.156V12.7363ZM103.339 19.7406H117.121V23.2428H103.339V19.7406ZM115.347 12.7363H119.349V30.4744H115.347V12.7363Z" fill="#182539"/>
<path d="M134.721 12.7363L143.044 30.4744H138.769L131.491 14.3737H132.81L125.533 30.4744H121.258L129.581 12.7363H134.721ZM125.943 26.7449V23.4702H138.223V26.7449H125.943Z" fill="#182539"/>
<path d="M163.144 23.2422C162.962 24.7431 162.461 26.0621 161.552 27.1992C160.688 28.3362 159.505 29.2459 158.095 29.8826C156.685 30.5194 155.048 30.8378 153.229 30.8378C151.227 30.8378 149.453 30.4739 147.907 29.7007C146.406 28.9275 145.178 27.8359 144.359 26.4715C143.495 25.107 143.086 23.4696 143.086 21.6503C143.086 19.831 143.495 18.1937 144.359 16.8292C145.224 15.4647 146.406 14.3731 147.907 13.5999C149.408 12.8267 151.182 12.4629 153.229 12.4629C155.048 12.4629 156.685 12.7813 158.095 13.418C159.505 14.0548 160.688 14.9189 161.552 16.056C162.416 17.1931 162.962 18.512 163.144 20.013H159.096C158.959 19.1943 158.595 18.4666 158.095 17.8298C157.595 17.2385 156.913 16.7382 156.094 16.4199C155.275 16.1015 154.32 15.9196 153.229 15.9196C152 15.9196 150.909 16.147 149.999 16.6018C149.09 17.0566 148.407 17.7388 147.907 18.603C147.407 19.4672 147.179 20.4678 147.179 21.6503C147.179 22.8329 147.407 23.8335 147.907 24.6976C148.407 25.5618 149.09 26.1986 149.999 26.6989C150.909 27.1537 152 27.3811 153.229 27.3811C154.32 27.3811 155.275 27.1992 156.094 26.8808C156.913 26.5624 157.595 26.1076 158.095 25.4708C158.595 24.8796 158.959 24.1519 159.096 23.2877H163.144V23.2422Z" fill="#182539"/>
<path d="M163.602 12.7363H181.704V16.284H163.602V12.7363ZM170.651 14.5556H174.654V30.4744H170.651V14.5556Z" fill="#182539"/>
<path d="M183.977 30.4744V12.7363H187.888V28.4277L186.66 28.2003L197.849 12.7363H203.079V30.4744H199.168V14.5556L200.396 14.783L189.025 30.4744H183.977Z" fill="#182539"/>
<path d="M216.815 22.1953L210.357 30.5185H205.672L212.267 22.1953H216.815ZM220.226 20.8308V23.6962H212.631L212.585 23.6052C211.266 23.6052 210.129 23.3778 209.174 22.923C208.219 22.4682 207.446 21.8314 206.9 21.0127C206.354 20.194 206.081 19.2389 206.081 18.1473C206.081 17.0558 206.354 16.1006 206.9 15.2819C207.446 14.4633 208.219 13.8265 209.174 13.3717C210.129 12.9169 211.266 12.6895 212.585 12.6895H223.001V30.4276H218.998V13.872L220.817 15.6913H213.176C212.267 15.6913 211.494 15.9187 210.993 16.3735C210.448 16.8283 210.175 17.4651 210.175 18.2838C210.175 19.1025 210.448 19.7392 210.993 20.194C211.539 20.6489 212.267 20.8763 213.176 20.8763H220.226V20.8308Z" fill="#182539"/>
<path d="M42.526 39.4787H0V15.2821L21.2403 0L42.4805 15.2821L42.526 39.4787ZM2.5925 16.5556V37.0226H6.04916C6.9588 36.6588 8.09586 36.113 8.27779 36.0675C8.68713 36.022 9.32388 35.5672 9.73323 35.5217C10.0971 35.5217 10.5064 35.4308 10.8248 35.3853C11.6435 35.3398 11.8709 35.0669 12.3257 34.4301C12.5986 34.0208 12.5077 34.0208 13.0534 33.8844C13.2809 33.8389 13.9176 33.7479 14.0995 33.6569C14.2815 33.566 14.6908 33.2931 14.8273 33.1112C15.8733 32.8383 15.8733 32.3834 16.1917 32.156L17.1469 31.4738C17.6472 31.019 17.7836 31.3373 17.7836 30.4277C17.7836 29.1542 17.7836 28.7903 18.2384 27.6078C18.4204 27.153 18.3749 26.6072 18.2839 26.1524C18.1475 25.4701 18.2384 25.2882 17.6472 25.1063C16.3282 24.5605 16.5101 24.1966 15.555 23.8782C15.0547 23.6963 14.6453 23.8328 14.145 23.7873C13.4628 23.7418 13.2809 23.6053 12.7805 23.5144C10.5519 23.0596 11.4161 23.3779 9.91516 23.6053C10.1426 23.4234 10.5519 23.3324 10.7793 23.1505C10.0516 22.6502 9.5513 22.1044 8.91455 21.5586C8.7781 21.4222 8.73261 21.4677 8.64165 21.2857C9.23292 21.6041 10.1426 22.3773 10.8248 22.7867C11.1887 23.0141 13.4628 23.2415 14.0086 23.287C13.7812 22.6047 12.6441 21.5586 12.5076 21.2857L12.0983 20.4671C12.4167 20.7854 12.5986 21.0583 12.9625 21.3767C13.4628 21.7406 14.4179 23.0141 14.6453 23.1505C14.7818 23.2415 15.8279 23.2415 16.1008 23.196L16.2372 23.1505C16.4191 23.105 16.3282 22.5138 16.3282 22.3318C16.2372 21.8315 15.464 21.1493 15.1911 20.8764C14.9637 20.649 14.9637 20.6945 14.6453 20.558C14.3724 20.4671 13.4173 19.6484 13.0989 19.4664C12.5531 19.1481 11.9164 18.9207 11.3706 18.6023C11.1432 18.4658 11.0522 18.2839 10.8248 18.1929C10.5974 18.1475 9.50581 18.011 9.2784 18.011C8.68713 18.011 8.59617 18.2839 7.732 18.0565C8.59617 18.102 8.32327 18.0565 9.09647 17.92C9.23292 17.8746 10.279 17.92 10.5064 17.9655L10.0516 16.1008C9.96064 15.7369 9.68775 15.5095 9.59678 15.4185L9.00551 15.2366L8.86906 15.1911C8.7781 15.1456 8.7781 15.1456 8.73261 15.1001L9.64226 15.4185C9.86967 15.1001 9.82419 14.9637 10.1426 14.6453C9.91516 15.1911 9.59678 15.2821 9.91516 15.7369C10.0061 15.8279 10.0516 15.9643 10.0971 16.1008C10.279 16.6011 10.4155 17.2378 10.5519 17.7836C10.6884 18.2839 10.6884 18.102 11.1432 18.2839C11.8254 18.5568 12.7351 19.0116 13.2354 19.33C13.4173 18.6478 13.8266 18.4204 13.7357 17.7381C13.6447 17.1014 13.4628 16.5101 13.4173 15.8733C13.3263 14.6908 13.3718 15.0547 12.8715 14.236C12.6441 13.8721 12.3257 13.0989 12.2802 12.5986C12.5986 13.2808 12.826 14.3724 13.5537 14.6908C13.6447 14.4634 13.9176 14.2815 14.0995 13.9631C14.3724 13.3718 14.7363 12.9625 14.9637 12.3712C15.0547 12.0528 15.1001 11.6435 15.2366 11.4161C15.1911 11.8709 14.9637 12.6441 14.7363 13.008C14.5998 13.2354 14.4634 13.3718 14.3724 13.6447C14.236 13.9176 14.1905 14.145 14.0086 14.3724C13.8266 14.5998 13.5992 14.6453 13.5992 15.0092C13.5992 15.3276 13.6902 15.6914 13.7357 15.9643C13.7812 16.2372 13.7812 16.5556 13.8721 16.874C13.9631 17.1468 14.054 17.4197 14.0995 17.7381C14.5089 17.0559 13.6447 16.3736 14.7818 15.7369C14.6453 15.9643 14.4179 16.0553 14.3724 16.3736C14.236 16.874 14.5998 17.1014 14.145 18.2384C14.0541 18.5113 14.0086 18.8752 13.9176 19.1481C13.5992 20.1942 14.6453 20.2851 15.2366 20.9219C15.464 21.1493 15.555 21.2857 15.7824 21.5132C16.4191 21.1948 16.7375 21.1948 17.1923 20.6945C17.3743 20.5125 17.92 19.6484 17.9655 19.3755C17.7836 19.1936 17.6926 19.0116 17.4197 18.8297C17.1469 18.6478 17.0104 18.4658 16.783 18.2384L16.1008 17.1923C16.4191 17.3288 16.874 18.2384 17.6926 18.7387C17.7836 18.8297 17.7836 18.7842 17.8746 18.8752C18.3294 19.239 18.5568 18.8752 18.8752 18.6023C18.6478 19.1481 17.8291 20.6035 17.5107 21.0128C17.1014 21.4677 16.5556 21.6951 16.6465 22.4683C16.692 22.9686 16.6465 23.3779 16.9194 23.6963C17.1923 24.0147 17.8291 23.8328 18.1475 24.0147C18.9207 24.424 18.6023 25.3337 19.8758 25.4246L19.6029 25.2427C19.2845 25.1063 19.1481 24.9243 18.9661 24.606C18.6478 23.9692 18.7842 24.1056 18.3294 23.6053C18.9207 23.3324 18.9207 23.1505 19.3755 22.7867C19.8758 22.3773 20.3306 21.7406 20.558 21.1493C20.6945 20.7854 20.649 20.7854 20.74 20.3761C21.0129 19.1936 20.3761 19.33 19.33 18.1929C19.1481 18.011 19.0116 17.92 18.8297 17.7381L17.0104 15.7369C16.874 15.5095 16.9649 15.0092 16.9194 14.8272L17.0104 14.8727C16.9194 14.6453 17.0104 14.5089 16.9194 14.0995C16.8285 13.5992 16.874 13.0989 17.0559 12.917C16.8285 13.7357 17.1469 14.2815 17.1014 15.0092C17.1014 15.6004 17.1014 15.5095 17.4197 15.9188C18.102 16.8285 18.7842 16.4191 19.7848 15.8279C20.2851 15.5095 20.558 15.0092 20.9219 14.6908C20.8309 14.5544 20.4671 14.145 20.3306 13.9631C20.1487 13.7357 19.9668 13.5083 19.7848 13.1899C19.1936 12.1893 19.6484 11.9164 19.2845 11.0522C19.6484 11.3706 19.33 12.2802 19.8303 13.0534C20.1487 13.5537 20.558 14.0995 21.0129 14.4179C21.2403 14.054 21.5586 13.5083 21.5132 13.0534C21.4222 12.3257 21.4677 12.5531 21.5586 11.9164C21.6041 11.7799 21.5586 11.598 21.6041 11.507C21.6951 11.9619 21.5586 12.2348 21.5586 12.5531C21.5586 13.0534 21.786 13.0534 21.6041 13.5537C21.877 13.0989 21.968 12.6896 22.0589 12.3257C22.0135 13.4628 21.7406 13.4628 21.2857 14.3269C20.9674 14.9182 20.4671 15.4185 19.9668 15.8733C19.6484 16.1462 19.0571 16.6011 18.6933 16.783C18.9207 17.6017 20.3306 17.8291 20.9219 18.5113L21.1948 18.8297C21.4222 18.7387 22.3318 18.1475 22.4228 17.9655C22.9231 17.2378 21.6496 16.3736 21.7861 15.7369C21.877 15.1911 22.2409 14.6908 22.4228 14.236C22.5138 13.9176 22.4683 13.5992 22.5593 13.3263V13.9631H22.6047H22.6502L22.7412 14.0086C22.4228 14.5089 22.1954 15.0547 22.0135 15.6459C21.9225 16.0553 22.1499 16.1917 22.3318 16.4191C22.5138 16.6011 22.6957 16.9194 22.8776 17.0559C23.1505 16.9649 23.3325 16.8285 23.5599 16.6465C23.8328 16.4646 23.9237 16.3282 24.1056 16.0098C24.7879 14.9182 24.1966 14.5089 23.2415 12.917C22.8776 12.2802 23.105 12.1893 23.4689 11.2341C23.4689 11.598 23.196 12.4167 23.196 12.5531C23.287 12.8715 24.1966 14.0995 24.3785 14.5544C24.7879 15.4185 24.1511 16.1917 23.6508 16.8285C23.0596 17.6017 23.4234 18.1929 22.5593 19.0116C22.2409 19.2845 21.877 19.421 21.968 20.0577C22.0589 20.6035 22.1954 20.8764 22.1499 21.4677C22.0589 22.8776 21.2403 23.2415 21.1493 23.6963C21.1038 24.2421 20.9219 24.6969 20.9219 25.1063C20.8309 26.6981 21.968 27.7442 21.4222 29.2452C21.2403 29.7909 21.0129 29.9729 20.7854 30.3367C20.9219 30.2458 20.8309 30.3367 20.9674 30.2458C21.2857 29.9729 21.5132 29.5635 21.6496 29.1997C22.5593 26.971 20.1487 25.0608 22.8776 23.196C24.3785 22.1499 24.3785 22.7867 24.7424 22.0589L25.743 20.0122C26.6981 18.102 25.9249 18.9661 25.9249 16.874C25.9249 15.6004 26.1978 14.6908 26.6527 13.6447C26.7436 13.1444 27.0165 12.4622 26.7891 12.0528C26.6527 11.8254 26.6527 11.6435 26.5162 11.3706C26.3343 10.9158 26.2888 11.0522 26.0614 10.7793C25.743 10.37 25.743 9.82419 25.4246 9.41485C25.1517 9.00551 24.9243 8.59617 24.606 8.18682C24.6514 8.23231 24.6514 8.23231 24.6969 8.27779C24.9698 8.55068 25.1972 8.86906 25.3792 9.18744C25.743 9.73322 25.8795 10.5974 26.2433 10.8703C26.5617 11.1432 26.6981 11.6435 26.8801 12.0073C27.1075 12.4167 26.971 12.2802 26.971 12.6896C27.6078 12.0983 27.4259 11.6435 27.6533 10.8248C27.6078 11.1887 27.6078 11.6435 27.5168 12.0073C27.4259 12.5076 27.1985 12.5986 27.0165 12.8715C26.8801 13.0534 26.9256 13.5992 26.7891 13.8721C26.6527 14.1905 26.4707 14.5544 26.3798 14.9182C27.0165 14.7818 26.8346 14.7363 27.5623 14.8272C29.3816 14.9182 30.1093 14.5998 31.3373 14.4179C30.4732 14.9182 28.8358 15.0092 27.6988 14.9637C27.062 14.9637 26.3798 14.8272 26.2433 15.464C26.1069 16.1008 26.1069 16.7375 26.2433 17.2833C26.4253 17.8746 26.6527 18.2839 26.971 18.6023C27.3804 19.1026 27.3349 18.8752 28.472 18.6478C29.7909 18.3749 29.3361 18.5568 30.3367 18.5568C31.1099 18.5568 31.6557 18.4204 32.3834 18.6478C31.7012 18.6478 31.5193 18.6023 30.837 18.7842C30.6096 18.8297 30.3367 18.9207 30.1093 18.9661C29.7909 19.0116 29.5635 18.9207 29.1997 19.0116C28.3355 19.1481 27.2894 19.5574 26.5617 19.9213C26.2888 20.0577 26.3343 20.0577 26.1978 20.4216C25.8795 21.4677 25.5156 22.6502 25.0608 23.6508C24.0602 24.5605 23.6963 24.7879 23.287 25.6975C22.5138 26.6981 22.9686 26.4707 23.287 27.2439C23.5599 27.9262 23.1505 28.6539 23.1505 29.3361C23.1505 29.8819 23.4689 30.8825 23.6963 31.2464L23.9237 31.4283C23.9237 31.4283 23.9692 31.4283 23.9692 31.4738C24.1966 31.6557 23.9237 31.4283 24.0147 31.5193C24.1511 31.6557 24.1511 31.7012 24.2421 31.8831C24.3331 32.0196 24.7424 32.4289 24.8789 32.5199C25.5611 32.8837 25.6066 33.7479 26.7891 33.7024C27.153 33.8844 27.8352 34.1118 28.1991 34.2482C28.472 34.3392 33.2021 35.9311 35.6127 36.8407H39.7971V16.3736L21.1948 2.91087L2.5925 16.5556Z" fill="#182539"/>
<path d="M16.0538 24.9239C16.0538 24.9239 15.6444 24.7874 15.3715 24.56C15.0987 24.3326 15.0532 24.2416 14.8712 24.2871C14.7348 24.2871 14.8258 24.56 14.7348 24.6055C14.6438 24.651 14.5074 24.1507 14.2345 24.1961C13.9616 24.2416 14.3255 24.56 14.1435 24.56C13.9616 24.56 13.9161 24.1961 13.6432 24.2871C13.3248 24.3326 13.6887 24.6964 13.5068 24.7419C13.3248 24.7874 13.2794 24.4235 12.961 24.6055C12.6426 24.7874 12.7336 24.8784 12.8245 24.9239C12.9155 24.9693 12.961 25.1058 12.6881 25.1513C12.4152 25.2422 12.5062 25.4696 12.5516 25.5606C12.5971 25.6516 12.6881 25.6971 12.9155 25.6516C13.1884 25.6061 12.8245 25.879 13.0974 25.9245C13.2794 25.9699 13.3248 25.788 13.4158 25.788C13.5068 25.788 13.4158 25.9699 13.5068 25.9699C13.6432 25.9699 13.7342 25.6971 13.8706 25.6971C14.0071 25.6971 13.7797 26.0154 13.9616 26.0154C14.189 26.0154 14.2345 25.6971 14.3255 25.6971C14.4164 25.6971 14.189 26.0154 14.4164 26.0154C14.6893 26.0154 14.8258 25.5151 14.9622 25.4696C15.0987 25.4242 14.9167 25.788 15.1441 25.788C15.3261 25.7425 15.4625 25.0603 16.0538 24.9239Z" fill="#182539"/>
<path d="M28.1484 20.7407C28.1484 20.7407 28.3758 21.2865 28.3758 21.7868C28.3758 22.2871 28.3758 22.4235 28.5578 22.56C28.7397 22.6964 28.8762 22.3326 29.0126 22.4235C29.149 22.5145 28.7397 23.1058 29.0581 23.3332C29.3765 23.5606 29.3765 22.9238 29.5584 23.0603C29.7403 23.2422 29.3765 23.6061 29.7403 23.8335C30.0587 24.0609 30.1497 23.4241 30.3316 23.5151C30.559 23.6061 30.2406 24.0154 30.7409 24.1973C31.2412 24.3793 31.2412 24.1973 31.1958 24.0609C31.1503 23.879 31.2412 23.788 31.5596 23.9699C31.878 24.1519 32.0599 23.879 32.1054 23.7425C32.1054 23.6061 32.1509 23.4696 31.878 23.2422C31.5596 23.0148 32.1509 23.1058 31.969 22.7874C31.8325 22.56 31.6051 22.6964 31.5596 22.6055C31.4686 22.5145 31.7415 22.469 31.6506 22.3326C31.5141 22.1961 31.1503 22.3326 31.0138 22.1961C30.8774 22.0597 31.4686 22.0142 31.2412 21.7868C31.0138 21.5594 30.65 21.8323 30.559 21.6958C30.468 21.5594 31.0138 21.5594 30.7864 21.2865C30.5135 21.0136 29.8768 21.3774 29.7403 21.1955C29.6039 21.0591 30.1042 20.9226 29.9222 20.7407C29.7403 20.5587 28.8307 21.1955 28.1484 20.7407Z" fill="#182539"/>
<path d="M18.1911 22.6505C18.1911 22.6505 18.5095 22.4685 18.8279 22.3776C19.1463 22.2866 19.1917 22.2866 19.2827 22.1956C19.3282 22.0592 19.1008 22.0137 19.1463 21.9228C19.1917 21.8318 19.6011 22.0137 19.692 21.7863C19.783 21.5589 19.3737 21.6499 19.4646 21.5134C19.5556 21.377 19.8285 21.5589 19.9195 21.3315C20.0104 21.1041 19.6466 21.1496 19.6466 21.0131C19.692 20.8767 19.9649 21.0131 20.0104 20.6947C20.0559 20.3764 19.9649 20.3764 19.874 20.4218C19.783 20.4673 19.692 20.4218 19.783 20.1944C19.874 19.967 19.6466 19.876 19.6011 19.9215C19.5101 19.9215 19.4191 19.9215 19.3282 20.1489C19.2372 20.3764 19.2372 20.0125 19.0553 20.1489C18.9188 20.2399 19.0553 20.3764 19.0098 20.4218C18.9643 20.4673 18.9188 20.3309 18.8279 20.4218C18.7824 20.5128 18.9188 20.6947 18.8279 20.8312C18.7369 20.9676 18.6459 20.6038 18.555 20.7402C18.464 20.8767 18.6459 21.1041 18.6005 21.1496C18.555 21.2405 18.464 20.8767 18.3276 21.0586C18.1911 21.2405 18.464 21.6044 18.4185 21.6953C18.3276 21.7863 18.2366 21.5134 18.1456 21.6499C17.9637 21.7863 18.4185 22.1956 18.1911 22.6505Z" fill="#182539"/>
<path d="M21.97 18.0569C21.97 18.0569 21.879 17.784 21.9245 17.5112C21.9245 17.2383 21.97 17.1928 21.879 17.1473C21.7881 17.0563 21.6971 17.2383 21.6516 17.1928C21.5606 17.1473 21.8335 16.8744 21.6971 16.738C21.5606 16.6015 21.5152 16.9199 21.4242 16.8289C21.3332 16.738 21.5152 16.556 21.3787 16.4196C21.2423 16.2831 21.1513 16.6015 21.0603 16.556C20.9694 16.5105 21.1513 16.3286 20.9239 16.1922C20.6965 16.1012 20.6965 16.1467 20.6965 16.2376C20.6965 16.3286 20.651 16.3741 20.5145 16.2376C20.3781 16.1012 20.2417 16.2376 20.2417 16.3286C20.2417 16.3741 20.1962 16.4651 20.3326 16.6015C20.4691 16.738 20.1962 16.647 20.2417 16.8289C20.2871 16.9199 20.4236 16.8744 20.4236 16.9199C20.4236 16.9654 20.3326 16.9654 20.3781 17.0563C20.4236 17.1018 20.6055 17.1018 20.6965 17.1473C20.742 17.2383 20.4691 17.1928 20.56 17.3292C20.651 17.4657 20.8329 17.3292 20.8784 17.4202C20.9239 17.5112 20.651 17.4657 20.742 17.6021C20.8329 17.7386 21.1968 17.6021 21.2423 17.6931C21.2877 17.784 21.0603 17.784 21.1513 17.9205C21.2423 18.0569 21.6516 17.784 21.97 18.0569Z" fill="#182539"/>
<path d="M26.7886 21.2402C26.7886 21.2402 26.7431 21.6041 26.6066 21.877C26.4702 22.1499 26.4247 22.1954 26.4702 22.3318C26.5157 22.4683 26.6976 22.2863 26.7431 22.4228C26.7886 22.5137 26.3792 22.6957 26.4702 22.9231C26.5611 23.1505 26.7431 22.7866 26.7886 22.9231C26.834 23.0595 26.5611 23.1505 26.6521 23.3779C26.7431 23.6053 26.9705 23.2869 27.0614 23.3779C27.1524 23.4689 26.8795 23.6508 27.0614 23.8782C27.2889 24.1056 27.3343 24.0147 27.3343 23.9237C27.3798 23.8327 27.4253 23.7872 27.5618 23.9692C27.6982 24.1511 27.8801 24.0601 27.9256 24.0147C27.9711 23.9692 28.0166 23.8782 27.9256 23.6963C27.8347 23.4689 28.1075 23.6963 28.1075 23.4689C28.1075 23.3324 27.9256 23.3324 27.9256 23.2415C27.9256 23.1505 28.0621 23.2415 28.0621 23.105C28.0166 23.014 27.7892 22.9686 27.7437 22.8321C27.6982 22.6957 28.0166 22.8776 27.9711 22.6957C27.9256 22.5137 27.6527 22.5592 27.6072 22.4683C27.6072 22.3773 27.8801 22.5592 27.8346 22.3318C27.7892 22.1044 27.3343 22.1044 27.2889 21.968C27.2434 21.8315 27.5618 21.9225 27.5163 21.786C27.4708 21.6496 27.016 21.6951 26.7886 21.2402Z" fill="#182539"/>
<path d="M29.1094 17.693C29.1094 17.693 29.4278 17.5565 29.7461 17.5565C30.0645 17.5565 30.1555 17.5565 30.201 17.4656C30.2919 17.3746 30.0645 17.2836 30.11 17.1927C30.1555 17.1017 30.5193 17.3746 30.7013 17.1472C30.8377 16.9652 30.4284 16.9652 30.5648 16.8288C30.6558 16.6924 30.8832 16.9198 31.0651 16.6923C31.2016 16.4649 30.8377 16.4649 30.8832 16.3285C30.9287 16.192 31.2016 16.374 31.2925 16.1011C31.3835 15.7827 31.2925 15.7827 31.2016 15.8282C31.1106 15.8737 31.0196 15.7827 31.1561 15.6008C31.247 15.3734 31.1106 15.2824 31.0196 15.2824C30.9287 15.2824 30.8377 15.2369 30.7013 15.4188C30.5648 15.6008 30.6103 15.2369 30.4284 15.3734C30.2919 15.4643 30.3829 15.6008 30.3374 15.6463C30.2919 15.6917 30.2464 15.5098 30.1555 15.6008C30.0645 15.6917 30.1555 15.9191 30.0645 16.0101C29.9735 16.1011 29.9281 15.7372 29.8371 15.8737C29.7006 16.0101 29.8826 16.2375 29.7916 16.283C29.7006 16.3285 29.7006 16.0101 29.5642 16.1466C29.4278 16.283 29.6097 16.6924 29.5187 16.7833C29.4278 16.8743 29.3368 16.5559 29.2458 16.6923C29.1549 16.8288 29.4278 17.2836 29.1094 17.693Z" fill="#182539"/>
<path d="M23.4687 22.605C23.4687 22.605 23.7416 22.3776 24.0145 22.2866C24.2874 22.1957 24.3329 22.1502 24.3783 22.0592C24.4238 21.9682 24.1964 21.9228 24.2419 21.8318C24.2874 21.7408 24.6512 21.8318 24.7422 21.6499C24.8332 21.4679 24.4693 21.5589 24.5148 21.4225C24.5603 21.286 24.8332 21.4225 24.9241 21.195C25.0151 20.9676 24.6512 21.0586 24.6512 20.9221C24.6512 20.7857 24.9241 20.8767 24.9696 20.6038C25.0151 20.3309 24.8786 20.3309 24.7877 20.3764C24.6967 20.4218 24.6512 20.4218 24.6512 20.1944C24.6512 19.967 24.5148 19.9215 24.4238 19.967C24.3329 19.967 24.2874 20.0125 24.1964 20.1944C24.1509 20.4218 24.06 20.058 23.9235 20.2399C23.8326 20.3309 23.9235 20.4218 23.9235 20.5128C23.878 20.5583 23.8326 20.4218 23.7871 20.5128C23.7416 20.6038 23.878 20.7857 23.8326 20.8767C23.7871 20.9676 23.6506 20.6947 23.5597 20.8312C23.4687 20.9676 23.6961 21.1496 23.6506 21.195C23.6051 21.2405 23.5142 20.9676 23.4232 21.1496C23.3322 21.3315 23.6051 21.6044 23.5597 21.6953C23.5142 21.7863 23.3322 21.5589 23.2868 21.6953C23.1958 21.8318 23.6051 22.1502 23.4687 22.605Z" fill="#182539"/>
<path d="M23.7374 19.7854C23.7374 19.7854 23.7374 19.4671 23.601 19.1942C23.51 18.9213 23.4645 18.8758 23.51 18.7393C23.5555 18.6029 23.7374 18.7848 23.7829 18.6939C23.8284 18.6029 23.51 18.421 23.601 18.1936C23.692 17.9661 23.8284 18.33 23.9194 18.1936C23.9649 18.0571 23.7374 17.9661 23.8284 17.7387C23.9649 17.5568 24.1013 17.8752 24.1923 17.7842C24.2832 17.6933 24.0103 17.5113 24.2377 17.3294C24.4652 17.1475 24.5106 17.1929 24.5106 17.2839C24.5106 17.3749 24.6016 17.4204 24.7381 17.2384C24.8745 17.0565 25.0109 17.1929 25.0564 17.2384C25.1019 17.2839 25.1474 17.3749 25.0564 17.5568C24.92 17.7387 25.2384 17.5568 25.1929 17.7842C25.1929 17.9207 25.0564 17.9207 25.0109 17.9661C25.0109 18.0116 25.1474 18.0116 25.1019 18.1026C25.0564 18.1936 24.829 18.1936 24.7835 18.33C24.7381 18.4665 25.0564 18.33 25.0109 18.4665C24.9655 18.6029 24.6926 18.5574 24.6471 18.6484C24.6016 18.7393 24.92 18.6029 24.829 18.7848C24.7381 18.9668 24.3287 18.9668 24.3287 19.0577C24.2832 19.1487 24.6016 19.1032 24.5106 19.2397C24.4652 19.4671 23.9649 19.3761 23.7374 19.7854Z" fill="#182539"/>
<path d="M23.3335 16.327C23.3335 16.327 23.2425 16.145 23.0606 16.0086C22.9241 15.8721 22.8786 15.8721 22.8786 15.7812C22.8786 15.6902 23.0151 15.7357 23.0151 15.6902C23.0151 15.5992 22.7422 15.5992 22.7422 15.4628C22.7422 15.3264 22.9241 15.4628 22.9241 15.3718C22.9241 15.2809 22.7422 15.2809 22.7422 15.1444C22.7422 15.008 22.9696 15.0989 22.9696 15.0535C23.0151 14.9625 22.7877 14.9625 22.8332 14.7806C22.8786 14.5986 22.9241 14.6441 22.9696 14.6896C23.0151 14.7351 23.0606 14.7351 23.106 14.5986C23.106 14.4622 23.2425 14.4622 23.288 14.5077C23.3335 14.5077 23.3789 14.5532 23.3789 14.6896C23.3789 14.826 23.4699 14.6441 23.5609 14.7806C23.6064 14.8715 23.5154 14.917 23.5154 14.9625C23.5154 15.008 23.6064 14.917 23.6064 15.008C23.6064 15.0535 23.4699 15.1444 23.5154 15.2354C23.5154 15.3264 23.6518 15.1444 23.6973 15.2354C23.7428 15.3264 23.5609 15.4173 23.5609 15.4628C23.5609 15.5083 23.6973 15.3718 23.7428 15.4628C23.7883 15.5538 23.5154 15.7357 23.5154 15.7812C23.5154 15.8267 23.6973 15.7357 23.6973 15.8267C23.6973 15.9176 23.3335 16.0086 23.3335 16.327Z" fill="#182539"/>
<path d="M15.2811 16.9187C15.2811 16.9187 15.5085 16.6458 15.7814 16.5093C16.0543 16.3729 16.0998 16.3274 16.1453 16.2364C16.1908 16.1455 15.9634 16.1455 15.9634 16.009C15.9634 15.9181 16.3727 15.9636 16.4182 15.7361C16.4637 15.5087 16.0998 15.6907 16.1453 15.5542C16.1908 15.4178 16.4637 15.5087 16.5091 15.2358C16.5546 14.9629 16.1908 15.1449 16.1908 15.0084C16.1908 14.872 16.4637 14.9175 16.4637 14.5991C16.4637 14.2807 16.3272 14.3262 16.2817 14.4172C16.1908 14.4626 16.1453 14.4626 16.1453 14.2352C16.1453 14.0078 15.9634 14.0078 15.8724 14.0078C15.7814 14.0533 15.7359 14.0533 15.6905 14.2807C15.645 14.5081 15.554 14.1897 15.4176 14.3717C15.3266 14.5081 15.4631 14.5991 15.4176 14.6446C15.3721 14.69 15.2811 14.5991 15.2811 14.69C15.2356 14.781 15.4176 14.9175 15.3721 15.0539C15.3266 15.1904 15.1447 14.872 15.0992 15.0539C15.0537 15.2358 15.2811 15.3268 15.2356 15.4178C15.1902 15.5087 15.0537 15.1904 14.9627 15.4178C14.8718 15.6452 15.2356 15.8726 15.1902 15.9636C15.1447 16.0545 14.9627 15.8271 14.9173 16.009C14.8718 16.191 15.3266 16.4639 15.2811 16.9187Z" fill="#182539"/>
<path d="M11.1362 20.6025C11.1362 20.6025 10.6814 20.2387 10.4085 19.7838C10.1356 19.329 10.0901 19.238 9.90817 19.1926C9.68076 19.1471 9.72624 19.5109 9.54431 19.5109C9.36238 19.4655 9.45334 18.7832 9.044 18.7377C8.63466 18.6923 8.99852 19.238 8.72563 19.1926C8.45273 19.1016 8.63466 18.6468 8.17984 18.6013C7.7705 18.5103 8.04339 19.1016 7.81598 19.1471C7.58857 19.1471 7.63405 18.6468 7.13375 18.6923C6.63344 18.7377 6.67892 18.9197 6.81537 19.0106C6.90633 19.1471 6.90633 19.2835 6.54247 19.238C6.17861 19.238 6.13313 19.5564 6.17862 19.6474C6.2241 19.7838 6.26958 19.9203 6.63344 19.9658C7.04278 20.0112 6.45151 20.1932 6.76989 20.4206C6.9973 20.557 7.13374 20.3296 7.22471 20.3751C7.31567 20.4206 7.13374 20.6025 7.27019 20.648C7.45212 20.6935 7.67953 20.4206 7.90694 20.4661C8.13436 20.5116 7.58857 20.8299 7.90694 20.9209C8.22532 21.0119 8.40725 20.6025 8.5437 20.6935C8.68015 20.739 8.17984 21.0119 8.5437 21.1483C8.90756 21.2848 9.3169 20.6935 9.49883 20.739C9.68076 20.7844 9.27142 21.1483 9.58979 21.1938C9.90817 21.2393 10.3175 20.4661 11.1362 20.6025Z" fill="#182539"/>
<path d="M13.2308 13.7817C13.2308 13.7817 13.5947 13.3268 14.004 13.0085C14.4589 12.7356 14.5498 12.6901 14.5953 12.4627C14.6408 12.2353 14.2314 12.3262 14.2769 12.1443C14.2769 11.9624 15.0046 12.0079 15.0501 11.5985C15.0956 11.1892 14.5498 11.553 14.5953 11.3256C14.6408 11.0527 15.1411 11.1892 15.1866 10.7798C15.2321 10.3705 14.6408 10.6434 14.6408 10.416C14.5953 10.1886 15.1411 10.234 15.0501 9.68825C14.9592 9.18795 14.8227 9.23343 14.6863 9.36988C14.5498 9.50632 14.4134 9.46084 14.4134 9.09698C14.4134 8.73312 14.095 8.68764 13.9585 8.77861C13.8221 8.86957 13.6857 8.86957 13.6857 9.23343C13.6402 9.64277 13.4582 9.0515 13.2308 9.41536C13.0944 9.64277 13.3218 9.77922 13.2763 9.87018C13.2308 9.96115 13.0489 9.77922 13.0034 9.96115C12.9579 10.1431 13.2308 10.3705 13.1853 10.5979C13.1399 10.8253 12.8215 10.325 12.7305 10.5979C12.6396 10.8708 13.0489 11.0982 13.0034 11.2347C12.9579 11.3711 12.685 10.8708 12.5486 11.2347C12.4576 11.5985 13.0489 11.9624 13.0034 12.1898C12.9579 12.4172 12.5941 12.0079 12.5486 12.2807C12.5031 12.5082 13.3218 12.9175 13.2308 13.7817Z" fill="#182539"/>
<path d="M15.5547 9.46069C15.5547 9.46069 16.146 9.41521 16.6463 9.55165C17.1466 9.6881 17.2375 9.73358 17.4195 9.59714C17.6014 9.46069 17.283 9.23328 17.4649 9.14231C17.6014 9.00586 18.0562 9.59714 18.3746 9.36972C18.693 9.14231 18.0562 8.96038 18.2836 8.82394C18.511 8.68749 18.7385 9.14231 19.1023 8.86942C19.4662 8.64201 18.8294 8.41459 18.9659 8.23266C19.1023 8.05074 19.4207 8.46008 19.7391 8.05073C20.0574 7.64139 19.921 7.59591 19.7391 7.59591C19.5571 7.59591 19.5117 7.45946 19.7845 7.23205C20.0574 6.95916 19.83 6.73175 19.7391 6.68626C19.6481 6.64078 19.4662 6.54982 19.1933 6.77723C18.8749 7.00464 19.1478 6.50433 18.7839 6.54982C18.5565 6.5953 18.602 6.86819 18.4656 6.91368C18.3746 6.95916 18.3746 6.68626 18.2381 6.77723C18.1017 6.86819 18.1017 7.23205 17.9198 7.32302C17.7378 7.41398 17.8743 6.86819 17.6014 7.00464C17.3285 7.14109 17.4649 7.55043 17.3285 7.64139C17.1921 7.73236 17.374 7.14109 17.0101 7.32302C16.6917 7.50495 16.7827 8.18718 16.6008 8.27815C16.4189 8.36911 16.4643 7.86881 16.2369 8.00525C16.0095 8.1417 16.2369 8.96038 15.5547 9.46069Z" fill="#182539"/>
<path d="M27.6016 14.4637C27.6016 14.4637 28.1928 14.3728 28.7386 14.4183C29.2844 14.5092 29.3754 14.5092 29.5573 14.4183C29.7392 14.2818 29.3754 14.0544 29.5573 13.918C29.6938 13.7815 30.1941 14.3273 30.5124 14.0544C30.8308 13.7815 30.1486 13.6905 30.376 13.5086C30.6034 13.3267 30.8763 13.7815 31.1947 13.4631C31.513 13.1902 30.8763 13.0083 31.0127 12.8264C31.1492 12.6444 31.5131 13.0083 31.7859 12.5535C32.0588 12.0987 31.9224 12.0532 31.7405 12.0532C31.5585 12.0532 31.4676 11.9622 31.7405 11.6438C32.0134 11.3709 31.7405 11.0981 31.6495 11.0526C31.513 11.0071 31.3766 10.9616 31.1037 11.189C30.7853 11.4619 31.0582 10.8706 30.6489 11.0071C30.4215 11.098 30.467 11.3255 30.376 11.4164C30.285 11.4619 30.285 11.189 30.1486 11.28C30.0121 11.3709 30.0576 11.7803 29.8757 11.8712C29.6938 11.9622 29.7847 11.4164 29.5118 11.5529C29.2389 11.7348 29.4209 12.1441 29.2844 12.2351C29.148 12.3261 29.2389 11.7348 28.9206 11.9622C28.6022 12.1441 28.7841 12.8719 28.6022 13.0083C28.4203 13.0993 28.4202 12.599 28.1928 12.7809C27.9199 13.0083 28.2838 13.918 27.6016 14.4637Z" fill="#182539"/>
<path d="M31.7422 15.1904C31.7422 15.1904 32.288 15.5088 32.6518 15.8727C33.0157 16.2365 33.0612 16.373 33.2886 16.373C33.516 16.373 33.3796 16.0091 33.607 16.0091C33.7889 16.0091 33.8344 16.7368 34.2437 16.7368C34.6531 16.7368 34.1982 16.191 34.4711 16.2365C34.744 16.282 34.6985 16.7823 35.1079 16.7368C35.5172 16.6914 35.1534 16.191 35.3808 16.1001C35.6082 16.0546 35.6537 16.5549 36.154 16.4185C36.6543 16.282 36.5633 16.1456 36.4269 16.0091C36.2904 15.8727 36.2904 15.7362 36.6998 15.6907C37.1091 15.6453 37.0636 15.2814 36.9727 15.1904C36.9272 15.0995 36.8362 14.963 36.4723 14.963C36.063 14.963 36.6088 14.6901 36.2449 14.5537C36.0175 14.4627 35.8811 14.6901 35.7901 14.6901C35.6537 14.6901 35.8356 14.4627 35.6992 14.4627C35.5172 14.4627 35.2898 14.7811 35.1079 14.7356C34.9259 14.6901 35.3353 14.3263 35.0624 14.2808C34.744 14.2353 34.6076 14.6901 34.4256 14.6446C34.2437 14.5992 34.744 14.2353 34.3347 14.1898C33.9708 14.1443 33.6524 14.7811 33.425 14.7811C33.1976 14.7356 33.5615 14.3263 33.2431 14.3263C32.9247 14.2808 32.6064 15.1904 31.7422 15.1904Z" fill="#182539"/>
<path d="M23.9196 7.18587C23.9196 7.18587 23.6012 6.68557 23.5103 6.18526C23.4193 5.68496 23.4193 5.54851 23.2374 5.45755C23.0554 5.3211 22.9645 5.73044 22.7825 5.63947C22.6006 5.54851 22.919 4.91176 22.6006 4.72983C22.2822 4.5479 22.3732 5.18465 22.1458 5.0482C21.9184 4.91176 22.2368 4.50242 21.8274 4.275C21.4636 4.04759 21.509 4.72983 21.2816 4.63886C21.0542 4.59338 21.2816 4.09307 20.7813 4.00211C20.281 3.91115 20.281 4.04759 20.372 4.18404C20.4175 4.32049 20.372 4.45693 20.0081 4.32049C19.6443 4.18404 19.5078 4.50242 19.5078 4.59338C19.5078 4.72983 19.5078 4.86627 19.8262 5.0482C20.19 5.23013 19.5533 5.18465 19.8262 5.50303C19.9626 5.68496 20.19 5.54851 20.281 5.63947C20.372 5.73044 20.0991 5.77592 20.2355 5.91237C20.372 6.00333 20.6904 5.8214 20.8723 5.95785C21.0542 6.0943 20.4629 6.18526 20.6904 6.36719C20.9178 6.54912 21.2816 6.23075 21.3726 6.36719C21.509 6.45816 20.9178 6.54912 21.2361 6.77653C21.509 7.00394 22.1003 6.5946 22.2822 6.73105C22.4642 6.8675 21.9639 7.04943 22.1913 7.18587C22.4187 7.32232 23.1919 6.77653 23.9196 7.18587Z" fill="#182539"/>
<path d="M28.7407 10.4158C28.7407 10.4158 28.5588 9.96095 28.5133 9.50613C28.4679 9.0513 28.4679 8.96034 28.3314 8.86938C28.195 8.77841 28.0585 9.0513 27.9675 8.96034C27.8311 8.86937 28.195 8.36907 27.8766 8.18714C27.6037 8.00521 27.6492 8.551 27.4672 8.41455C27.2853 8.27811 27.6037 7.95973 27.2853 7.73232C27.0124 7.50491 26.9669 8.05069 26.785 8.00521C26.6031 7.91425 26.8305 7.55039 26.4212 7.41394C26.0118 7.27749 26.0118 7.41394 26.0573 7.55039C26.1028 7.68683 26.0118 7.7778 25.7389 7.64135C25.466 7.5049 25.3296 7.73232 25.2841 7.82328C25.2841 7.91425 25.2386 8.05069 25.5115 8.23262C25.7844 8.41455 25.2841 8.32359 25.466 8.64196C25.557 8.82389 25.7844 8.73293 25.8299 8.77841C25.8754 8.86938 25.6934 8.91486 25.7844 9.00582C25.8754 9.09679 26.1937 9.00582 26.3302 9.14227C26.4666 9.27872 25.9663 9.27872 26.1483 9.46065C26.3302 9.64258 26.6486 9.41516 26.7395 9.50613C26.8305 9.59709 26.3302 9.59709 26.5576 9.8245C26.785 10.0519 27.3308 9.77902 27.4218 9.86999C27.5582 10.0064 27.1034 10.0974 27.2853 10.2338C27.5127 10.4613 28.195 10.0064 28.7407 10.4158Z" fill="#182539"/>
<path d="M9.18348 17.4201C9.18348 17.4201 8.63769 17.3746 8.18286 17.5111C7.72804 17.6475 7.63708 17.6475 7.45515 17.5565C7.27322 17.4656 7.54611 17.2382 7.40967 17.1472C7.27322 17.0562 6.90936 17.5565 6.59098 17.3291C6.27261 17.1017 6.86388 16.9653 6.68195 16.8288C6.45454 16.6924 6.27261 17.1017 5.95423 16.8743C5.63586 16.6469 6.18164 16.465 6.0452 16.283C5.95423 16.1921 5.63585 16.5559 5.36296 16.1921C5.09007 15.8282 5.22651 15.7827 5.36296 15.7827C5.49941 15.7827 5.59037 15.6918 5.31748 15.4189C5.04458 15.146 5.272 14.964 5.36296 14.9186C5.45393 14.8731 5.59037 14.8276 5.86327 15.0095C6.13616 15.2369 5.86327 14.7366 6.22713 14.8276C6.45454 14.8731 6.40905 15.1005 6.50002 15.146C6.59098 15.1915 6.5455 14.964 6.68195 15.0095C6.8184 15.1005 6.8184 15.4189 7.00032 15.5098C7.18225 15.6008 7.04581 15.1005 7.27322 15.2369C7.50063 15.3734 7.40967 15.7372 7.54611 15.7827C7.68256 15.8282 7.50063 15.3279 7.81901 15.5098C8.13738 15.6463 8.00094 16.283 8.18286 16.374C8.36479 16.465 8.27383 15.9647 8.54673 16.1011C8.81962 16.2375 8.54673 17.0107 9.18348 17.4201Z" fill="#182539"/>
<path d="M18.6952 14.0084C18.6952 14.0084 18.3769 13.6445 18.0585 13.4171C17.6946 13.1897 17.6037 13.1442 17.5582 13.0077C17.5127 12.8258 17.8311 12.8713 17.8311 12.7348C17.8311 12.5984 17.2398 12.6439 17.1943 12.3255C17.1488 12.0071 17.6037 12.28 17.5582 12.0981C17.5127 11.8707 17.1034 12.0071 17.0579 11.6433C17.0124 11.2794 17.4672 11.5068 17.5127 11.3249C17.5582 11.143 17.1034 11.1884 17.1943 10.7791C17.2398 10.3698 17.3763 10.4152 17.4672 10.5062C17.5582 10.5972 17.6946 10.5972 17.6946 10.2788C17.6946 9.96042 17.9675 9.96042 18.0585 10.0059C18.1495 10.0514 18.2859 10.0969 18.2859 10.3698C18.3314 10.6881 18.4678 10.2333 18.6498 10.5062C18.7407 10.6881 18.6043 10.7791 18.6043 10.8701C18.6498 10.961 18.7862 10.7791 18.8317 10.9156C18.8772 11.052 18.6498 11.2339 18.6952 11.4159C18.7407 11.5978 18.9681 11.1884 19.0591 11.4159C19.1501 11.6433 18.8317 11.8252 18.8772 11.9616C18.9227 12.0981 19.1501 11.6888 19.241 11.9616C19.332 12.2345 18.8772 12.5529 18.9227 12.7348C18.9681 12.8713 19.241 12.5529 19.2865 12.7803C19.332 13.0077 18.6043 13.3261 18.6952 14.0084Z" fill="#182539"/>
<path d="M25.967 13.5526C25.967 13.5526 25.6032 13.3252 25.2393 13.2343C24.8755 13.1433 24.7845 13.1433 24.6935 13.0068C24.6026 12.8704 24.8755 12.8249 24.83 12.6885C24.7845 12.552 24.3297 12.7794 24.1932 12.5065C24.0568 12.2336 24.5571 12.3701 24.4206 12.1882C24.3297 12.0062 24.0113 12.2336 23.8748 11.9608C23.7384 11.6879 24.1932 11.7333 24.1932 11.5969C24.1477 11.415 23.8294 11.5969 23.7384 11.1876C23.6929 10.8237 23.7839 10.8237 23.9203 10.8692C24.0568 10.9147 24.1023 10.8692 24.0113 10.5963C23.9203 10.3234 24.1477 10.2324 24.2387 10.2324C24.3297 10.2324 24.4206 10.2324 24.5571 10.5053C24.6935 10.7782 24.6935 10.3234 24.8755 10.5053C25.0119 10.6418 24.9209 10.7782 24.9664 10.8237C25.0119 10.8692 25.1029 10.6872 25.1483 10.8237C25.2393 10.9147 25.0574 11.1876 25.1483 11.2785C25.2393 11.3695 25.3303 11.0056 25.4667 11.1876C25.6032 11.3695 25.3758 11.5969 25.4212 11.6879C25.4667 11.7788 25.5577 11.3695 25.7396 11.5969C25.8761 11.8243 25.5577 12.2336 25.6487 12.3701C25.7396 12.5065 25.8761 12.1427 26.0125 12.3246C26.149 12.5065 25.6941 13.0068 25.967 13.5526Z" fill="#182539"/>
<path d="M20.3307 12.2789C20.3307 12.2789 20.2852 12.006 20.1487 11.7786C20.0123 11.5512 20.0123 11.5512 20.0123 11.4147C20.0578 11.3237 20.1942 11.4147 20.2397 11.3237C20.2852 11.2328 19.9668 11.1418 20.0123 10.9599C20.0578 10.778 20.2397 11.0509 20.2397 10.9144C20.2852 10.778 20.0578 10.7325 20.1032 10.5505C20.1487 10.3686 20.3307 10.596 20.4216 10.5051C20.4671 10.4141 20.2397 10.3231 20.3761 10.1412C20.5126 9.95928 20.5581 10.0048 20.6035 10.0957C20.649 10.1867 20.6945 10.1867 20.7855 10.0502C20.8764 9.86831 21.0129 9.95928 21.0584 10.0048C21.1039 10.0502 21.1493 10.0957 21.1039 10.2777C21.0584 10.4596 21.2403 10.2322 21.2403 10.4141C21.2403 10.5505 21.1493 10.5505 21.1493 10.596C21.1493 10.6415 21.2403 10.596 21.2403 10.687C21.2403 10.778 21.0584 10.8234 21.0584 10.9144C21.0584 11.0054 21.2858 10.8689 21.2403 11.0054C21.1948 11.1418 21.0129 11.1418 21.0129 11.2328C21.0129 11.3237 21.2403 11.1418 21.1948 11.3237C21.1493 11.5057 20.831 11.5512 20.831 11.6421C20.831 11.7331 21.0584 11.6421 21.0129 11.7786C20.9219 11.915 20.4671 11.915 20.3307 12.2789Z" fill="#182539"/>
<path d="M22.9696 10.6887C22.9696 10.6887 22.7877 10.4613 22.5148 10.3703C22.2874 10.2339 22.2419 10.2339 22.1964 10.1429C22.151 10.0519 22.3784 10.0519 22.3329 9.96097C22.3329 9.87001 21.969 9.96097 21.9235 9.73356C21.8781 9.55163 22.1964 9.68808 22.151 9.55163C22.1055 9.41518 21.8781 9.50615 21.8326 9.32422C21.7871 9.09681 22.1055 9.23325 22.1055 9.09681C22.1055 8.96036 21.8326 9.00584 21.8781 8.77843C21.8781 8.50554 21.969 8.55102 22.0145 8.5965C22.06 8.64198 22.151 8.64198 22.151 8.46005C22.151 8.27812 22.2874 8.23264 22.3329 8.27812C22.3784 8.32361 22.4693 8.32361 22.5148 8.50554C22.5603 8.68746 22.6058 8.41457 22.7422 8.55102C22.8332 8.64198 22.6967 8.73295 22.7422 8.77843C22.7877 8.82391 22.8332 8.73295 22.8787 8.82391C22.9242 8.91488 22.7877 9.05132 22.8332 9.14229C22.8787 9.23325 23.0151 9.00584 23.0606 9.14229C23.1061 9.27874 22.9241 9.41518 22.9696 9.46067C23.0151 9.55163 23.1061 9.27874 23.197 9.46067C23.2425 9.64259 22.9696 9.87001 23.0151 9.96097C23.0606 10.0519 23.197 9.82452 23.2425 9.96097C23.288 10.0519 22.8787 10.3248 22.9696 10.6887Z" fill="#182539"/>
<path d="M12.2825 24.379C12.2825 24.379 12.1005 24.5155 11.9641 24.6974C11.8276 24.8793 11.8276 24.9248 11.7367 24.9248C11.6457 24.9248 11.6912 24.7884 11.6002 24.7884C11.5093 24.7884 11.5548 25.1067 11.3728 25.1067C11.1909 25.1067 11.3728 24.8793 11.2819 24.9248C11.1909 24.9703 11.2364 25.1522 11.0544 25.1522C10.8725 25.1522 11.009 24.9248 10.918 24.9248C10.827 24.9248 10.827 25.1067 10.6451 25.0612C10.4632 25.0158 10.4632 24.9703 10.5087 24.9248C10.5541 24.8793 10.5541 24.8338 10.4177 24.7884C10.2812 24.7884 10.2812 24.6519 10.2812 24.6064C10.2812 24.5609 10.3267 24.5155 10.4632 24.5155C10.6451 24.5155 10.4177 24.4245 10.5541 24.3335C10.6451 24.288 10.6906 24.379 10.7361 24.379C10.7816 24.379 10.6906 24.288 10.7816 24.288C10.827 24.288 10.9635 24.4245 11.009 24.379C11.0999 24.379 10.918 24.1971 11.009 24.1971C11.1454 24.1516 11.1909 24.3335 11.2819 24.3335C11.3273 24.3335 11.1454 24.1971 11.2819 24.1516C11.4183 24.1061 11.5548 24.379 11.6457 24.379C11.7367 24.379 11.5548 24.1971 11.6912 24.1971C11.7822 24.0606 11.9641 24.379 12.2825 24.379Z" fill="#182539"/>
<path d="M5.36271 18.4654C5.36271 18.4654 5.1353 18.4654 4.90789 18.5109C4.68048 18.5564 4.68048 18.6019 4.58951 18.5564C4.49855 18.5109 4.635 18.4199 4.58951 18.3744C4.54403 18.329 4.3621 18.5564 4.22565 18.4654C4.08921 18.3744 4.3621 18.2835 4.27113 18.238C4.18017 18.1925 4.08921 18.3744 3.95276 18.2835C3.81631 18.1925 4.04372 18.1016 3.99824 18.0106C3.95276 17.9196 3.81631 18.1016 3.67987 17.9651C3.54342 17.7832 3.5889 17.7832 3.67987 17.7832C3.77083 17.7832 3.77083 17.7377 3.67987 17.6012C3.54342 17.5103 3.63438 17.3738 3.67987 17.3738C3.72535 17.3738 3.77083 17.3284 3.90728 17.4193C4.04372 17.5103 3.90727 17.2829 4.0892 17.3284C4.18017 17.3284 4.18017 17.4648 4.22565 17.4648C4.27114 17.4648 4.27113 17.3738 4.31662 17.4193C4.3621 17.4648 4.3621 17.6012 4.45306 17.6467C4.54403 17.6922 4.45307 17.4648 4.58951 17.5103C4.68048 17.5558 4.63499 17.7377 4.72596 17.7832C4.77144 17.8287 4.72596 17.6012 4.86241 17.6467C4.99885 17.6922 4.95337 18.0106 5.04434 18.0561C5.1353 18.1015 5.08982 17.8741 5.18078 17.9196C5.18078 17.8741 5.08982 18.238 5.36271 18.4654Z" fill="#182539"/>
<path d="M12.8243 20.8759C12.8243 20.8759 12.6878 20.7849 12.5514 20.694C12.4149 20.603 12.3694 20.6485 12.3694 20.5575C12.3694 20.512 12.4604 20.512 12.4604 20.4666C12.4604 20.4211 12.233 20.4666 12.233 20.3756C12.233 20.2846 12.4149 20.3301 12.3694 20.2846C12.3694 20.2391 12.1875 20.2846 12.1875 20.1482C12.1875 20.0572 12.3694 20.1027 12.3694 20.0117C12.3694 19.9662 12.233 19.9662 12.233 19.8298C12.2785 19.6934 12.3239 19.6934 12.3239 19.7388C12.3694 19.7843 12.4149 19.7388 12.4149 19.6479C12.4149 19.5569 12.5059 19.5114 12.5514 19.5569C12.5968 19.6024 12.6423 19.5569 12.6423 19.6479C12.6423 19.7388 12.7333 19.6024 12.7788 19.6479C12.8243 19.6934 12.7333 19.7388 12.7788 19.7843C12.7788 19.8298 12.8243 19.7388 12.8697 19.7843C12.8697 19.8298 12.7788 19.9208 12.8243 19.9662C12.8243 20.0117 12.9607 19.8753 12.9607 19.9662C12.9607 20.0572 12.8697 20.1027 12.8697 20.1482C12.8697 20.1937 12.9607 20.0572 13.0062 20.1482C13.0517 20.2391 12.8697 20.3756 12.8697 20.4211C12.8697 20.4666 13.0062 20.3301 13.0062 20.4211C13.0517 20.512 12.8243 20.694 12.8243 20.8759Z" fill="#182539"/>
<path d="M15.2803 13.6438C15.2803 13.6438 15.2349 13.5074 15.1439 13.3709C15.0529 13.2345 15.0529 13.2345 15.0529 13.189C15.0529 13.1435 15.1894 13.189 15.1894 13.1435C15.2349 13.098 15.0074 13.0071 15.0529 12.9161C15.0984 12.8251 15.1894 12.9616 15.2349 12.9161C15.2349 12.8706 15.0984 12.8251 15.1439 12.6887C15.1894 12.5977 15.3258 12.7342 15.3713 12.6887C15.4168 12.6432 15.2803 12.5977 15.3713 12.4613C15.4623 12.3703 15.5077 12.4158 15.5077 12.4613C15.5077 12.5068 15.5532 12.5068 15.6442 12.4158C15.6897 12.3248 15.7806 12.3703 15.8261 12.4158C15.8716 12.4613 15.8716 12.4613 15.8261 12.5522C15.7806 12.6432 15.9171 12.5522 15.9171 12.6432C15.9171 12.6887 15.8261 12.6887 15.8261 12.7342C15.8261 12.7797 15.9171 12.7342 15.8716 12.7797C15.8716 12.8251 15.7352 12.8251 15.7352 12.8706C15.7352 12.9161 15.8716 12.8706 15.8716 12.9161C15.8716 13.0071 15.6897 12.9616 15.6897 13.0071C15.6897 13.0526 15.8261 12.9616 15.8261 13.0526C15.7806 13.1435 15.5987 13.1435 15.5532 13.189C15.5077 13.2345 15.6897 13.189 15.6897 13.28C15.6897 13.4619 15.3713 13.4619 15.2803 13.6438Z" fill="#182539"/>
<path d="M19.4636 15.1003C19.4636 15.1003 19.3727 14.9638 19.2817 14.8728C19.1907 14.7819 19.1452 14.7819 19.1452 14.6909C19.1452 14.6454 19.2817 14.6909 19.2817 14.6C19.2817 14.5545 19.0543 14.5545 19.0998 14.418C19.0998 14.3271 19.2817 14.418 19.2817 14.3725C19.2817 14.2816 19.1452 14.3271 19.1452 14.1906C19.1452 14.0542 19.3272 14.1906 19.3272 14.1451C19.3727 14.0996 19.1907 14.0542 19.2362 13.9632C19.2817 13.8722 19.3272 13.8722 19.3727 13.9177C19.4181 13.9632 19.4636 13.9632 19.4636 13.8722C19.5091 13.7813 19.6001 13.7813 19.6456 13.8267C19.691 13.8267 19.7365 13.8722 19.691 13.9632C19.691 14.0542 19.782 13.9177 19.8275 14.0087C19.873 14.0542 19.782 14.0996 19.782 14.1451C19.782 14.1906 19.873 14.1451 19.873 14.1906C19.873 14.2361 19.782 14.2816 19.782 14.3271C19.782 14.3725 19.9184 14.2816 19.9184 14.3725C19.9184 14.4635 19.782 14.4635 19.782 14.509C19.782 14.5545 19.9184 14.418 19.9184 14.5545C19.9184 14.6454 19.691 14.7364 19.691 14.7819C19.691 14.8274 19.8275 14.7364 19.8275 14.8274C19.782 14.8274 19.5091 14.8728 19.4636 15.1003Z" fill="#182539"/>
<path d="M20.2841 9.2329C20.2841 9.2329 20.3296 9.09645 20.2841 8.91453C20.2386 8.77808 20.2386 8.7326 20.2841 8.68711C20.3296 8.64163 20.3751 8.7326 20.4206 8.7326C20.466 8.68711 20.2841 8.55067 20.3751 8.4597C20.466 8.36874 20.466 8.59615 20.557 8.50518C20.6025 8.4597 20.466 8.36874 20.557 8.27777C20.648 8.18681 20.6935 8.36874 20.7389 8.36874C20.7844 8.32325 20.6935 8.23229 20.8299 8.18681C20.9663 8.14133 20.9663 8.18681 20.9663 8.23229C20.9663 8.27777 21.0118 8.32325 21.1028 8.23229C21.1938 8.18681 21.2392 8.23229 21.2847 8.27777C21.2847 8.32325 21.3302 8.36874 21.2392 8.41422C21.1483 8.50518 21.3302 8.4597 21.2847 8.55067C21.2847 8.59615 21.1938 8.59615 21.1938 8.59615C21.1938 8.64163 21.2392 8.64163 21.2392 8.68711C21.1938 8.7326 21.1028 8.68711 21.0573 8.7326C21.0118 8.77808 21.1938 8.77808 21.1483 8.82356C21.1028 8.86904 20.9663 8.82356 20.9663 8.86904C20.9209 8.91453 21.1028 8.91452 21.0573 8.96001C21.0118 9.05097 20.7844 8.96001 20.7389 9.00549C20.6935 9.05097 20.8754 9.05097 20.8299 9.14194C20.7844 9.2329 20.4206 9.09646 20.2841 9.2329Z" fill="#182539"/>
<path d="M18.4216 16.0101C18.4216 16.0101 18.2852 15.8282 18.1033 15.7372C17.9213 15.6463 17.8758 15.6463 17.8758 15.5553C17.8758 15.4644 18.0123 15.5098 18.0123 15.4189C18.0123 15.3279 17.7394 15.3734 17.6939 15.2369C17.6939 15.1005 17.9213 15.2369 17.8758 15.146C17.8304 15.055 17.6484 15.1005 17.6484 14.964C17.6484 14.8276 17.8758 14.9186 17.8758 14.8276C17.8758 14.7366 17.6939 14.7821 17.7394 14.6002C17.7849 14.4183 17.8304 14.4637 17.8758 14.4637C17.9213 14.5092 17.9668 14.5092 18.0123 14.3728C18.0578 14.2363 18.1487 14.2363 18.1942 14.2363C18.2397 14.2363 18.2852 14.2818 18.2852 14.4183C18.2852 14.5547 18.3762 14.3728 18.4671 14.4637C18.5126 14.5547 18.4216 14.6002 18.4216 14.6457C18.4216 14.6912 18.5126 14.6002 18.5126 14.6457C18.5126 14.6912 18.3762 14.7821 18.4216 14.8731C18.4671 14.964 18.6036 14.7821 18.6036 14.8731C18.6036 14.964 18.4671 15.055 18.4671 15.1005C18.4671 15.146 18.6036 14.964 18.649 15.1005C18.6945 15.2369 18.4216 15.3734 18.4216 15.4189C18.4216 15.5098 18.6036 15.3279 18.6036 15.4644C18.74 15.5553 18.3762 15.7372 18.4216 16.0101Z" fill="#182539"/>
<path d="M22.5105 12.3712C22.5105 12.3712 22.4195 12.2347 22.3286 12.1438C22.2376 12.0528 22.1921 12.0073 22.1921 11.9618C22.1921 11.9164 22.3286 11.9618 22.3286 11.9164C22.3286 11.8709 22.1012 11.8254 22.1466 11.7344C22.1466 11.6435 22.2831 11.7799 22.3286 11.6889C22.3741 11.598 22.1921 11.598 22.1921 11.507C22.1921 11.4161 22.3741 11.507 22.3741 11.4615C22.4195 11.416 22.2376 11.3706 22.3286 11.2796C22.4195 11.1432 22.4195 11.1886 22.465 11.2341C22.5105 11.2796 22.556 11.2796 22.556 11.1886C22.6015 11.0977 22.6924 11.0977 22.7379 11.1432C22.7834 11.1432 22.8289 11.1886 22.7834 11.2796C22.7834 11.3706 22.8744 11.2341 22.9198 11.3251C22.9198 11.3706 22.8744 11.4161 22.8744 11.4161C22.8744 11.4615 22.9653 11.416 22.9653 11.4615C22.9653 11.507 22.8744 11.5525 22.8744 11.598C22.8744 11.6435 23.0108 11.5525 23.0108 11.6435C23.0108 11.7344 22.8744 11.7344 22.8744 11.7799C22.8744 11.8254 23.0108 11.7344 23.0108 11.8254C23.0108 11.9164 22.7834 11.9618 22.7834 12.0073C22.7834 12.0528 22.9198 11.9618 22.9198 12.0528C22.9198 12.1438 22.556 12.1438 22.5105 12.3712Z" fill="#182539"/>
<path d="M24.2865 8.91485C24.2865 8.91485 24.15 8.86937 24.0136 8.86937C23.8771 8.86937 23.8316 8.86937 23.7862 8.82389C23.7407 8.7784 23.8771 8.73292 23.8316 8.68744C23.7862 8.64196 23.6497 8.7784 23.5588 8.68744C23.5133 8.59648 23.6952 8.59648 23.6497 8.55099C23.6042 8.50551 23.5133 8.59647 23.4223 8.50551C23.3313 8.41455 23.5588 8.36906 23.5133 8.32358C23.4678 8.2781 23.3768 8.36906 23.3313 8.23262C23.2859 8.09617 23.3313 8.09617 23.3768 8.09617C23.4223 8.09617 23.4678 8.09617 23.4223 8.0052C23.3768 7.91424 23.4678 7.86876 23.5133 7.86876C23.5588 7.86876 23.6042 7.86876 23.6497 7.91424C23.6952 8.0052 23.6952 7.82328 23.7862 7.86876C23.8316 7.91424 23.7862 7.95972 23.8316 8.0052C23.8316 8.0052 23.8771 7.95972 23.9226 7.95972C23.9681 7.95972 23.9226 8.09617 23.9226 8.14165C23.9226 8.18713 23.9681 8.0052 24.0591 8.05069C24.1045 8.09617 24.0136 8.23262 24.0591 8.23262C24.1045 8.23262 24.1045 8.09617 24.1955 8.14165C24.241 8.18713 24.15 8.41455 24.1955 8.46003C24.241 8.50551 24.2865 8.32358 24.332 8.41455C24.3774 8.50551 24.1955 8.73292 24.2865 8.91485Z" fill="#182539"/>
<path d="M11.1446 16.4189C11.1446 16.4189 11.0081 16.3279 10.8717 16.2369C10.7352 16.146 10.6897 16.1915 10.6897 16.1005C10.6897 16.055 10.7807 16.055 10.7807 16.0095C10.7807 15.964 10.5533 16.0095 10.5533 15.9186C10.5533 15.8276 10.7352 15.8731 10.6897 15.8276C10.6897 15.7821 10.5078 15.8276 10.5078 15.6911C10.5078 15.6002 10.6897 15.6457 10.6897 15.5547C10.6897 15.5092 10.5533 15.5092 10.5533 15.3728C10.5988 15.2363 10.6443 15.2363 10.6443 15.2818C10.6443 15.3273 10.7352 15.2818 10.7352 15.1908C10.7352 15.0999 10.8262 15.0544 10.8717 15.0999C10.9172 15.1454 10.9626 15.0999 10.9626 15.1908C10.9626 15.2818 11.0536 15.1454 11.0991 15.1908C11.1446 15.2363 11.0536 15.2818 11.0991 15.3273C11.0991 15.3728 11.1446 15.2818 11.19 15.3273C11.19 15.3728 11.0991 15.4637 11.1446 15.5092C11.19 15.5547 11.281 15.4183 11.281 15.5092C11.281 15.6002 11.19 15.6457 11.19 15.6911C11.19 15.7366 11.281 15.6002 11.3265 15.6911C11.372 15.7821 11.19 15.9186 11.19 15.964C11.19 16.0095 11.3265 15.8731 11.3265 15.964C11.3265 16.055 11.0991 16.1915 11.1446 16.4189Z" fill="#182539"/>
<path d="M10.3666 12.553C10.3666 12.553 10.3212 12.4166 10.2302 12.2801C10.1392 12.1437 10.0937 12.1437 10.1392 12.0982C10.1392 12.0527 10.2757 12.0982 10.2757 12.0527C10.2757 12.0072 10.0938 11.9617 10.0938 11.8253C10.0938 11.6889 10.2302 11.8708 10.2757 11.8253C10.2757 11.7343 10.1392 11.7343 10.1847 11.6434C10.2302 11.5524 10.3666 11.6889 10.4121 11.5979C10.4576 11.5524 10.2757 11.5069 10.3666 11.3705C10.4576 11.2795 10.5031 11.2795 10.5031 11.325C10.5031 11.3705 10.5486 11.3705 10.5941 11.2795C10.6395 11.1885 10.7305 11.234 10.776 11.234C10.8215 11.2795 10.8215 11.2795 10.8215 11.3705C10.776 11.4614 10.9124 11.3705 10.9124 11.4614C10.9124 11.5069 10.8215 11.5524 10.8215 11.5524C10.8215 11.5979 10.9124 11.5524 10.8669 11.5979C10.8669 11.6434 10.7305 11.6889 10.7305 11.7343C10.7305 11.7798 10.8669 11.6889 10.8669 11.7798C10.8669 11.8708 10.7305 11.8708 10.7305 11.9163C10.7305 11.9617 10.8669 11.8708 10.8669 11.9617C10.8669 12.0527 10.6395 12.0982 10.6395 12.1437C10.6395 12.1892 10.776 12.1437 10.776 12.2346C10.7305 12.3256 10.4576 12.3256 10.3666 12.553Z" fill="#182539"/>
<path d="M9.23537 22.923C9.23537 22.923 8.91699 22.9685 8.68958 23.0595C8.46217 23.1959 8.41668 23.1959 8.28024 23.1959C8.18927 23.1505 8.28024 23.014 8.18927 22.9685C8.09831 22.923 7.96186 23.2414 7.73445 23.1505C7.55252 23.0595 7.82541 22.923 7.68897 22.8776C7.55252 22.8321 7.50704 23.0595 7.27962 23.014C7.05221 22.923 7.37059 22.7411 7.23414 22.6956C7.14318 22.6502 7.00673 22.8776 6.8248 22.6956C6.64287 22.5137 6.68835 22.4682 6.77932 22.4682C6.87028 22.4682 6.87028 22.3773 6.73384 22.2863C6.55191 22.1953 6.64287 22.0589 6.68836 22.0134C6.73384 21.9679 6.8248 21.9224 6.96125 22.0134C7.14318 22.1044 6.91577 21.877 7.14318 21.877C7.27963 21.877 7.27963 22.0134 7.32511 22.0134C7.37059 22.0134 7.32511 21.877 7.41607 21.9224C7.50704 21.9224 7.55252 22.1498 7.64348 22.1498C7.73445 22.1498 7.598 21.9224 7.73445 21.9679C7.87089 22.0134 7.87089 22.2408 7.96186 22.2408C8.05282 22.2408 7.8709 22.0134 8.05283 22.0589C8.23476 22.1044 8.28024 22.4682 8.3712 22.4682C8.46217 22.5137 8.3712 22.2408 8.55313 22.2863C8.82603 22.2863 8.82603 22.7411 9.23537 22.923Z" fill="#182539"/>
<path d="M6.32058 21.2861C6.32058 21.2861 5.95672 21.2406 5.63835 21.3316C5.31997 21.4226 5.27449 21.468 5.13804 21.3771C5.0016 21.3316 5.18353 21.1497 5.09256 21.1042C5.0016 21.0132 4.7287 21.3771 4.50129 21.2406C4.27388 21.1042 4.68322 20.9677 4.54677 20.9223C4.41032 20.8313 4.27388 21.1042 4.04647 20.9677C3.81905 20.8313 4.18291 20.6494 4.09195 20.5584C4.00098 20.4674 3.81905 20.6948 3.59164 20.4674C3.36423 20.24 3.45519 20.1945 3.59164 20.1945C3.68261 20.1945 3.72809 20.1036 3.54616 19.9671C3.36423 19.8307 3.50068 19.6487 3.54616 19.6033C3.63712 19.5578 3.68261 19.5123 3.91002 19.6487C4.13743 19.7852 3.91002 19.4668 4.18291 19.5123C4.31936 19.5578 4.31936 19.6942 4.41033 19.7397C4.50129 19.7852 4.45581 19.6033 4.54677 19.6487C4.63774 19.6942 4.63774 19.9216 4.77418 20.0126C4.91063 20.0581 4.77418 19.7397 4.95611 19.7852C5.13804 19.8307 5.04708 20.1491 5.18352 20.1491C5.31997 20.1491 5.13804 19.8307 5.36545 19.9671C5.59287 20.1036 5.54738 20.5129 5.63835 20.5584C5.77479 20.6039 5.68383 20.2855 5.86576 20.3765C6.04769 20.4674 5.86576 21.0132 6.32058 21.2861Z" fill="#182539"/>
<path d="M12.5056 22.7406C12.5056 22.7406 12.2327 22.6951 12.0053 22.7406C11.7779 22.7861 11.7324 22.7861 11.6414 22.7406C11.5505 22.6951 11.6869 22.6042 11.6414 22.5132C11.5959 22.4222 11.3685 22.6951 11.2321 22.5587C11.0956 22.4222 11.414 22.3768 11.2776 22.3313C11.1866 22.2403 11.0501 22.4677 10.9137 22.3313C10.7772 22.1948 11.0501 22.1039 11.0047 22.0584C10.9592 22.0129 10.7773 22.1493 10.6408 21.9219C10.5044 21.6945 10.5498 21.6945 10.6408 21.6945C10.7318 21.6945 10.7773 21.649 10.6408 21.5126C10.5044 21.3761 10.6408 21.2852 10.6863 21.2397C10.7318 21.2397 10.8227 21.1942 10.9592 21.3307C11.0956 21.4671 10.9592 21.1942 11.1411 21.2397C11.2321 21.2852 11.2321 21.3761 11.2776 21.4216C11.323 21.4671 11.323 21.3307 11.3685 21.3761C11.4595 21.4216 11.414 21.6036 11.505 21.649C11.5959 21.6945 11.5505 21.4216 11.6414 21.5126C11.7779 21.6036 11.6869 21.7855 11.7779 21.831C11.8688 21.8765 11.7779 21.6036 11.9143 21.6945C12.0508 21.7855 12.0053 22.1039 12.0962 22.1493C12.1872 22.1948 12.1417 21.9674 12.2782 22.0584C12.4146 22.1493 12.2327 22.4677 12.5056 22.7406Z" fill="#182539"/>
<path d="M18.1899 18.1926C18.1899 18.1926 18.008 18.1016 17.8716 18.0561C17.6896 18.0107 17.6896 18.0107 17.6441 17.9652C17.5987 17.9197 17.7351 17.8742 17.6896 17.8287C17.6441 17.7833 17.4622 17.8742 17.4167 17.7833C17.3258 17.6923 17.5532 17.6923 17.5077 17.6468C17.4622 17.5558 17.3258 17.6923 17.2803 17.5558C17.2348 17.4194 17.4167 17.4649 17.3713 17.3739C17.3258 17.2829 17.1893 17.3739 17.1438 17.2375C17.0984 17.101 17.1438 17.101 17.1893 17.101C17.2348 17.101 17.2803 17.101 17.2348 16.9646C17.1893 16.8736 17.2803 16.8281 17.3258 16.8281C17.3713 16.8281 17.4167 16.8281 17.4622 16.9191C17.5532 17.0101 17.5077 16.8281 17.5987 16.9191C17.6441 16.9646 17.6441 17.0101 17.6441 17.0555C17.6896 17.101 17.6896 17.0101 17.7351 17.0555C17.7806 17.101 17.7351 17.192 17.7806 17.2829C17.8261 17.3739 17.8261 17.1465 17.917 17.2375C18.008 17.3284 17.917 17.4194 17.917 17.4649C17.917 17.5104 17.9625 17.3284 18.0535 17.4194C18.1445 17.5104 18.008 17.6923 18.0535 17.7378C18.099 17.7833 18.1444 17.6468 18.1899 17.6923C18.2354 17.7378 18.0535 17.9652 18.1899 18.1926Z" fill="#182539"/>
<path d="M12.2816 18.1937C12.2816 18.1937 12.1906 17.9663 12.0541 17.7844C11.9177 17.6024 11.8722 17.6024 11.8722 17.466C11.8722 17.375 12.0087 17.4205 12.0541 17.375C12.0541 17.2841 11.7812 17.2386 11.7812 17.0566C11.8267 16.8747 12.0087 17.1021 12.0087 16.9657C12.0087 16.8292 11.8267 16.8292 11.8267 16.6473C11.8722 16.4654 12.0541 16.6473 12.0996 16.5563C12.1451 16.4654 11.9177 16.4199 12.0087 16.1925C12.0996 15.9651 12.1451 16.056 12.1906 16.1015C12.2361 16.147 12.2816 16.1925 12.327 16.0106C12.3725 15.8286 12.509 15.8741 12.5545 15.9196C12.5999 15.9651 12.6454 16.0106 12.5999 16.147C12.5545 16.3289 12.7364 16.1015 12.7364 16.2834C12.7819 16.3744 12.6454 16.4199 12.6454 16.4654C12.6454 16.5109 12.7364 16.4654 12.7364 16.5109C12.7364 16.6018 12.5999 16.6473 12.5999 16.7383C12.5999 16.8292 12.7819 16.6473 12.7819 16.7838C12.7819 16.9202 12.5999 16.9657 12.5999 17.0112C12.5999 17.1021 12.7819 16.9202 12.7819 17.0566C12.7819 17.2386 12.509 17.3295 12.509 17.4205C12.509 17.5115 12.6909 17.375 12.6909 17.5115C12.7364 17.7844 12.327 17.8298 12.2816 18.1937Z" fill="#182539"/>
<path d="M9.32464 15.0096C9.32464 15.0096 9.14272 14.7822 8.9153 14.6912C8.68789 14.5548 8.64241 14.5548 8.64241 14.4638C8.59693 14.3729 8.77886 14.3729 8.77886 14.2819C8.77886 14.1909 8.46048 14.2364 8.415 14.0545C8.36951 13.8726 8.64241 14.009 8.59693 13.918C8.55144 13.7816 8.32403 13.8726 8.27855 13.6906C8.23307 13.5087 8.50596 13.5997 8.50596 13.5087C8.50596 13.4177 8.27855 13.4177 8.27855 13.1903C8.27855 12.9629 8.36951 12.9629 8.415 13.0084C8.46048 13.0539 8.55144 13.0084 8.55144 12.8265C8.55144 12.6445 8.68789 12.6445 8.73337 12.6445C8.77886 12.6445 8.86982 12.69 8.9153 12.8719C8.96079 13.0539 9.00627 12.781 9.14272 12.9174C9.23368 13.0084 9.14272 13.0994 9.14272 13.1448C9.14272 13.1903 9.23368 13.0994 9.27916 13.1903C9.32464 13.2813 9.1882 13.4177 9.23368 13.5087C9.27916 13.5997 9.37013 13.3722 9.41561 13.5087C9.46109 13.6451 9.27916 13.7361 9.32464 13.8271C9.37013 13.918 9.46109 13.6451 9.50657 13.8271C9.55206 14.009 9.32465 14.1909 9.37013 14.2819C9.41561 14.3729 9.55206 14.1909 9.59754 14.3274C9.59754 14.4183 9.23368 14.6458 9.32464 15.0096Z" fill="#182539"/>
<path d="M12.1856 14.9181C12.1856 14.9181 11.9582 14.7816 11.7308 14.7361C11.5034 14.6907 11.4579 14.6907 11.4124 14.5997C11.3669 14.5087 11.5034 14.4632 11.5034 14.4178C11.5034 14.3723 11.185 14.4632 11.094 14.3268C11.0031 14.1904 11.276 14.2358 11.2305 14.1449C11.185 14.0539 11.0031 14.1904 10.9121 14.0084C10.8211 13.8265 11.094 13.872 11.0485 13.781C11.0031 13.69 10.8211 13.781 10.7757 13.5536C10.7302 13.3262 10.7757 13.3262 10.8666 13.3717C10.9576 13.4172 11.0031 13.3717 10.9121 13.2352C10.8211 13.0988 10.9576 13.0078 11.0031 13.0078C11.0485 13.0078 11.1395 13.0078 11.185 13.1443C11.276 13.2807 11.2305 13.0533 11.3669 13.1443C11.4579 13.1897 11.4124 13.2807 11.4124 13.3262C11.4124 13.3717 11.4579 13.2352 11.5034 13.3262C11.5489 13.4172 11.5034 13.5536 11.5489 13.5991C11.5943 13.69 11.6398 13.4172 11.7308 13.5081C11.8217 13.5991 11.6853 13.7355 11.7308 13.8265C11.7763 13.872 11.8217 13.6446 11.9127 13.7355C12.0037 13.872 11.8672 14.0994 11.9127 14.1904C11.9582 14.2813 12.0492 14.0539 12.0946 14.1449C12.1401 14.2358 12.0037 14.5997 12.1856 14.9181Z" fill="#182539"/>
<path d="M15.0955 22.8313C15.0955 22.8313 14.8681 22.6949 14.5952 22.6494C14.3223 22.6039 14.3223 22.6039 14.2313 22.5129C14.1404 22.422 14.3678 22.3765 14.3223 22.331C14.2768 22.24 14.0039 22.422 13.913 22.24C13.822 22.0581 14.1404 22.1491 14.0494 22.0126C13.9584 21.9217 13.7765 22.0581 13.6855 21.8762C13.5946 21.6942 13.8675 21.7397 13.8675 21.6488C13.822 21.5578 13.6401 21.6488 13.5491 21.4214C13.5036 21.1939 13.5491 21.1939 13.6401 21.2394C13.731 21.2849 13.7765 21.2394 13.6855 21.0575C13.5946 20.8756 13.731 20.8301 13.822 20.8301C13.8675 20.8301 13.9584 20.8301 14.0494 20.9665C14.1404 21.1485 14.0949 20.8301 14.2768 20.9665C14.3678 21.0575 14.3223 21.1485 14.3223 21.1939C14.3223 21.2394 14.4133 21.103 14.4587 21.1939C14.5042 21.2394 14.4133 21.4213 14.5042 21.5123C14.5497 21.6033 14.5952 21.3304 14.6862 21.4214C14.7771 21.5123 14.6407 21.6942 14.6862 21.7397C14.7316 21.7852 14.7771 21.5123 14.8681 21.6488C14.959 21.7852 14.8226 22.0581 14.8681 22.1491C14.9136 22.24 15.0045 22.0126 15.0955 22.1036C15.1865 22.1946 14.9136 22.4674 15.0955 22.8313Z" fill="#182539"/>
<path d="M17.1872 19.057C17.1872 19.057 16.9598 19.1935 16.8234 19.4209C16.6869 19.6028 16.6414 19.6483 16.5505 19.6938C16.4595 19.6938 16.505 19.5573 16.414 19.5573C16.3231 19.5573 16.3231 19.8757 16.1411 19.8757C15.9592 19.8757 16.1411 19.6483 16.0047 19.6483C15.8682 19.6483 15.9137 19.8757 15.7318 19.9212C15.5499 19.9212 15.6863 19.6938 15.5953 19.6483C15.5044 19.6483 15.5044 19.8757 15.2315 19.8302C15.0041 19.7847 15.0496 19.7393 15.095 19.6483C15.1405 19.6028 15.1405 19.5119 14.9586 19.5119C14.7767 19.5119 14.7767 19.3754 14.8221 19.2844C14.8676 19.239 14.8676 19.148 15.0496 19.148C15.2315 19.148 14.9586 19.057 15.1405 18.9661C15.2315 18.9206 15.3224 19.0115 15.3679 19.0115C15.4134 19.0115 15.3224 18.9206 15.4134 18.9206C15.5044 18.9206 15.5953 19.057 15.6863 19.0115C15.7773 19.0115 15.5499 18.8296 15.6863 18.8296C15.8228 18.7841 15.9137 18.9661 16.0047 18.9661C16.0956 18.9661 15.8682 18.8296 16.0047 18.7841C16.1411 18.7386 16.3231 19.0115 16.4595 19.0115C16.5505 18.9661 16.3685 18.8296 16.505 18.7841C16.596 18.6932 16.7779 19.057 17.1872 19.057Z" fill="#182539"/>
<path d="M24.6953 25.0596C24.6953 25.0596 24.8772 24.8777 25.0137 24.6502C25.1501 24.4228 25.1501 24.3773 25.2411 24.3319C25.3321 24.2864 25.3321 24.4683 25.423 24.4683C25.514 24.4683 25.4685 24.1499 25.6504 24.1045C25.8324 24.059 25.6959 24.3319 25.8324 24.2864C25.9688 24.2409 25.8779 24.0135 26.0598 23.968C26.2417 23.9225 26.1507 24.1954 26.2417 24.1954C26.3327 24.1954 26.3327 23.968 26.5601 23.968C26.7875 23.968 26.7875 24.059 26.742 24.1045C26.6965 24.1499 26.6965 24.2409 26.8785 24.1954C27.0604 24.1499 27.0604 24.3319 27.0604 24.3773C27.0604 24.4228 27.0149 24.5138 26.833 24.5593C26.6511 24.6048 26.924 24.6502 26.7875 24.7867C26.6965 24.8777 26.6056 24.7867 26.5601 24.7867C26.5146 24.8322 26.6056 24.8777 26.5146 24.9231C26.4236 24.9686 26.2872 24.8322 26.1962 24.8777C26.1053 24.9231 26.3327 25.0141 26.1962 25.0596C26.0598 25.1051 25.9688 24.9231 25.8779 24.9686C25.7869 25.0141 26.0598 25.1051 25.8779 25.1505C25.6959 25.196 25.514 24.9686 25.423 25.0141C25.3321 25.0596 25.514 25.196 25.3775 25.2415C25.3321 25.3325 25.0592 24.9686 24.6953 25.0596Z" fill="#182539"/>
<path d="M27.9224 17.193C27.9224 17.193 27.8769 16.9656 27.8314 16.8292C27.7859 16.6927 27.7404 16.6472 27.7404 16.5563C27.7404 16.4653 27.8769 16.5563 27.8769 16.5108C27.9224 16.4653 27.6949 16.3289 27.7404 16.1924C27.7859 16.056 27.8769 16.2834 27.9224 16.1924C27.9678 16.1014 27.7859 16.056 27.8314 15.9195C27.8769 15.7831 28.0133 15.965 28.0588 15.9195C28.1043 15.874 27.9678 15.7831 28.0588 15.6466C28.1498 15.5102 28.1952 15.5557 28.1952 15.6011C28.1952 15.6466 28.2407 15.6921 28.3317 15.5557C28.3772 15.4192 28.5136 15.5102 28.5136 15.5102C28.5136 15.5102 28.5591 15.6011 28.5136 15.6921C28.4681 15.8285 28.6046 15.6921 28.6046 15.8285C28.6046 15.9195 28.5136 15.9195 28.5136 15.965C28.5136 16.0105 28.6046 15.965 28.5591 16.0105C28.5591 16.056 28.4227 16.1014 28.3772 16.1924C28.3772 16.2834 28.5136 16.1469 28.5136 16.2834C28.5136 16.4198 28.3317 16.3743 28.3317 16.4198C28.3317 16.4653 28.4681 16.3743 28.4681 16.5108C28.4227 16.6472 28.1952 16.6472 28.1952 16.7382C28.1952 16.8292 28.3317 16.7382 28.3317 16.8292C28.3317 16.9201 28.0133 16.8746 27.9224 17.193Z" fill="#182539"/>
<path d="M25.2427 16.3278C25.2427 16.3278 25.1972 16.1004 25.1517 15.9639C25.1062 15.8275 25.0607 15.782 25.0607 15.691C25.0607 15.6001 25.1972 15.691 25.1972 15.6455C25.2427 15.6001 25.0153 15.4636 25.0607 15.3272C25.1062 15.1907 25.1972 15.4181 25.2427 15.3272C25.2881 15.2362 25.1062 15.1907 25.1517 15.0543C25.1972 14.9178 25.3336 15.0998 25.3791 15.0543C25.4246 15.0088 25.2881 14.9178 25.3791 14.7814C25.4701 14.6449 25.5156 14.6904 25.5156 14.7359C25.5156 14.7814 25.561 14.8269 25.652 14.6904C25.6975 14.554 25.8339 14.6449 25.8339 14.6449C25.8339 14.6449 25.8794 14.7359 25.8339 14.8269C25.7885 14.9633 25.9249 14.8269 25.9249 14.9633C25.9249 15.0543 25.8339 15.0543 25.8339 15.0998C25.8339 15.1452 25.9249 15.0998 25.8794 15.1452C25.8794 15.1907 25.743 15.2362 25.6975 15.3272C25.6975 15.4181 25.8339 15.2817 25.8339 15.4181C25.7885 15.5091 25.652 15.5091 25.652 15.5546C25.652 15.6001 25.7885 15.5091 25.7885 15.6455C25.743 15.782 25.5156 15.782 25.5156 15.873C25.5156 15.9639 25.652 15.873 25.652 15.9639C25.6975 16.0549 25.3791 16.0549 25.2427 16.3278Z" fill="#182539"/>
<path d="M36.3828 21.2856C36.3828 21.2856 36.4738 21.1037 36.5193 20.9673C36.5647 20.7853 36.5647 20.7853 36.6102 20.7398C36.6557 20.6944 36.7012 20.8308 36.7467 20.7853C36.7922 20.7398 36.7012 20.5579 36.7922 20.5124C36.8831 20.4215 36.8831 20.6489 36.9286 20.6034C36.9741 20.5579 36.8831 20.4215 37.0196 20.376C37.156 20.3305 37.1105 20.5124 37.2015 20.467C37.2925 20.4215 37.2015 20.285 37.3379 20.2395C37.4744 20.1941 37.4744 20.2395 37.4744 20.285C37.4744 20.3305 37.4744 20.376 37.6108 20.3305C37.7018 20.285 37.7473 20.376 37.7473 20.4215C37.7473 20.467 37.7473 20.5124 37.6563 20.5579C37.5654 20.6489 37.7473 20.6034 37.6563 20.6944C37.6108 20.7398 37.5654 20.7398 37.5199 20.7398C37.4744 20.7853 37.5654 20.7853 37.5199 20.8308C37.4744 20.8763 37.3834 20.8308 37.2925 20.8763C37.247 20.9218 37.4289 20.9218 37.3379 21.0127C37.247 21.0582 37.156 21.0127 37.1105 21.0127C37.0651 21.0582 37.247 21.0582 37.156 21.1492C37.065 21.2402 36.8831 21.1037 36.8376 21.1492C36.7922 21.1947 36.9286 21.2402 36.8831 21.2856C36.8831 21.2856 36.6102 21.1492 36.3828 21.2856Z" fill="#182539"/>
<path d="M28.7891 11.188C28.7891 11.188 28.88 11.0061 28.9255 10.8696C28.971 10.6877 28.971 10.6877 29.0165 10.6422C29.062 10.5967 29.1074 10.7332 29.1529 10.6877C29.1984 10.6422 29.1074 10.4603 29.1984 10.4148C29.2894 10.3238 29.2894 10.5512 29.3348 10.5057C29.3803 10.4603 29.2894 10.3238 29.4258 10.2783C29.5623 10.2329 29.5168 10.4148 29.6077 10.3693C29.6987 10.3238 29.6077 10.1874 29.7442 10.1419C29.8806 10.0964 29.8806 10.1419 29.8806 10.1874C29.8806 10.2329 29.8806 10.2783 30.0171 10.2329C30.108 10.1874 30.1535 10.2783 30.1535 10.3238C30.1535 10.3693 30.1535 10.4148 30.0626 10.4603C29.9716 10.5512 30.1535 10.5057 30.0626 10.5967C30.0171 10.6422 29.9716 10.6422 29.9261 10.6422C29.8806 10.6877 29.9716 10.6877 29.9261 10.7332C29.8806 10.7786 29.7897 10.7332 29.6987 10.7786C29.6077 10.8241 29.8352 10.8241 29.7442 10.9151C29.6532 11.0061 29.5623 10.9151 29.5168 10.9151C29.4713 10.9606 29.6532 10.9606 29.5623 11.0515C29.4713 11.1425 29.2894 11.0061 29.2439 11.0515C29.1984 11.097 29.3349 11.1425 29.2894 11.188C29.2439 11.188 29.0165 11.0061 28.7891 11.188Z" fill="#182539"/>
<path d="M32.1562 13.0076C32.1562 13.0076 32.4291 12.9622 32.6111 12.8257C32.793 12.6893 32.8385 12.6893 32.9295 12.6893C33.0204 12.6893 32.9295 12.8712 33.0204 12.8712C33.1114 12.8712 33.2023 12.5983 33.3843 12.6438C33.5662 12.6893 33.2933 12.8712 33.4298 12.8712C33.5662 12.9167 33.5662 12.6893 33.7936 12.7348C33.9755 12.7802 33.7481 12.9622 33.8391 13.0076C33.9301 13.0531 34.021 12.8712 34.203 12.9622C34.3849 13.0531 34.3394 13.1441 34.2939 13.1441C34.203 13.1896 34.203 13.2351 34.3849 13.2805C34.5668 13.326 34.4759 13.4625 34.4304 13.5079C34.3849 13.5534 34.3394 13.5989 34.1575 13.5534C33.9755 13.508 34.203 13.6899 34.021 13.6899C33.8846 13.6899 33.8846 13.5989 33.8391 13.5989C33.7936 13.5989 33.8391 13.6899 33.7481 13.6899C33.6572 13.6899 33.6117 13.5079 33.5207 13.5079C33.4298 13.5079 33.5662 13.6899 33.4298 13.6899C33.2933 13.6899 33.2933 13.4625 33.2023 13.4625C33.1114 13.4625 33.2933 13.6444 33.1114 13.6444C32.9295 13.5989 32.884 13.326 32.793 13.2805C32.702 13.2351 32.793 13.4625 32.6566 13.4625C32.5201 13.4625 32.5201 13.0986 32.1562 13.0076Z" fill="#182539"/>
<path d="M28.4688 23.9688C28.4688 23.9688 28.7416 24.0142 28.9691 24.0142C29.1965 24.0142 29.2419 23.9688 29.3329 24.0597C29.4239 24.1052 29.2419 24.1962 29.3329 24.2871C29.4239 24.3781 29.6058 24.1052 29.7877 24.2416C29.9242 24.3781 29.6058 24.4236 29.7423 24.4691C29.8332 24.56 29.9697 24.3781 30.1061 24.5145C30.2426 24.651 29.9697 24.6965 30.0151 24.7874C30.0606 24.8784 30.2426 24.6965 30.379 24.9239C30.5155 25.1058 30.4245 25.1513 30.379 25.1513C30.3335 25.1513 30.2426 25.1968 30.379 25.3332C30.5155 25.4697 30.379 25.5606 30.3335 25.6061C30.288 25.6061 30.1971 25.6516 30.0606 25.5152C29.9242 25.3787 30.0151 25.6516 29.8787 25.6061C29.7877 25.5606 29.7877 25.4697 29.7423 25.4242C29.6968 25.3787 29.6968 25.5152 29.6513 25.4697C29.6058 25.4242 29.6058 25.2423 29.5148 25.1968C29.4239 25.1513 29.4694 25.4242 29.3784 25.3332C29.2874 25.2423 29.3329 25.0603 29.2874 25.0148C29.242 24.9694 29.2874 25.2423 29.151 25.1513C29.0145 25.0603 29.1055 24.7419 29.0145 24.6965C28.9236 24.651 28.9236 24.8784 28.8326 24.7874C28.7416 24.6965 28.7871 24.2416 28.4688 23.9688Z" fill="#182539"/>
<path d="M29.9219 20.4217C29.9219 20.4217 30.1493 20.2398 30.2403 20.0124C30.3312 19.785 30.3767 19.7395 30.4677 19.7395C30.5586 19.7395 30.5586 19.876 30.6496 19.876C30.7406 19.876 30.6951 19.5576 30.877 19.5121C31.0589 19.4666 30.9225 19.7395 31.0134 19.694C31.1499 19.6485 31.0589 19.4666 31.2409 19.4211C31.4228 19.3756 31.3318 19.6485 31.4228 19.6485C31.5138 19.6485 31.5138 19.4211 31.7412 19.4211C31.9686 19.4211 31.9686 19.5121 31.9231 19.5576C31.8776 19.6031 31.8776 19.694 32.0595 19.6485C32.2415 19.6485 32.2415 19.785 32.2415 19.8305C32.2415 19.876 32.196 19.9669 32.0141 19.9669C31.8321 20.0124 32.105 20.0579 31.9686 20.1943C31.8776 20.2853 31.7867 20.1943 31.7412 20.1943C31.6957 20.1943 31.7866 20.2853 31.6957 20.3308C31.6047 20.3763 31.5138 20.2398 31.3773 20.2853C31.2863 20.3308 31.5138 20.4217 31.3773 20.4672C31.2409 20.5127 31.1499 20.3308 31.0589 20.3763C30.968 20.4217 31.2409 20.5127 31.0589 20.5582C30.877 20.6037 30.6951 20.3763 30.6041 20.4217C30.5131 20.4672 30.6951 20.6037 30.5586 20.6492C30.5586 20.6946 30.3312 20.3308 29.9219 20.4217Z" fill="#182539"/>
<path d="M31.3359 21.1944C31.3359 21.1944 31.5633 21.1035 31.7908 20.967C31.9727 20.8306 32.0182 20.7851 32.1091 20.7851C32.2001 20.7851 32.1091 20.9215 32.2001 20.967C32.2911 20.967 32.3365 20.6941 32.5185 20.7396C32.7004 20.7851 32.473 20.967 32.564 20.967C32.7004 20.967 32.7004 20.7851 32.8823 20.7851C33.0643 20.7851 32.8823 21.0125 32.9733 21.058C33.0643 21.1035 33.1097 20.8761 33.3372 20.967C33.5646 21.058 33.4736 21.1035 33.4281 21.149C33.3826 21.1944 33.3372 21.2399 33.5191 21.2854C33.701 21.3309 33.6555 21.4673 33.6101 21.5128C33.5646 21.5583 33.5191 21.6038 33.3826 21.5583C33.2007 21.5128 33.4281 21.6947 33.2462 21.6947C33.1552 21.7402 33.1097 21.6038 33.0643 21.6038C33.0188 21.6038 33.0643 21.6947 33.0188 21.6947C32.9278 21.6947 32.8823 21.5583 32.7914 21.5583C32.7004 21.5583 32.8369 21.7402 32.7459 21.7402C32.6549 21.7402 32.564 21.5583 32.5185 21.5583C32.4275 21.5583 32.6094 21.7402 32.473 21.7402C32.2911 21.7402 32.2456 21.4219 32.1546 21.4219C32.0636 21.4219 32.2001 21.6038 32.0637 21.6038C31.7908 21.6493 31.7453 21.2854 31.3359 21.1944Z" fill="#182539"/>
<path d="M26.9219 17.9654C26.9219 17.9654 27.1493 17.8745 27.3312 17.7835C27.5131 17.647 27.5131 17.647 27.6041 17.647C27.6951 17.647 27.6041 17.7835 27.6951 17.829C27.786 17.829 27.8315 17.6016 28.0135 17.6016C28.1954 17.647 27.968 17.7835 28.0589 17.7835C28.1499 17.7835 28.1954 17.6016 28.3318 17.647C28.5138 17.6925 28.3318 17.8745 28.3773 17.8745C28.4228 17.8745 28.5138 17.738 28.6957 17.829C28.8776 17.9199 28.8321 17.9654 28.7867 18.0109C28.7412 18.0564 28.6957 18.1019 28.8776 18.1474C29.0141 18.1928 28.9686 18.3293 28.9686 18.3293C28.9231 18.3748 28.8776 18.4202 28.7412 18.3748C28.5592 18.3293 28.7867 18.4657 28.6047 18.5112C28.5138 18.5112 28.4683 18.4202 28.4228 18.4202C28.3773 18.4202 28.4228 18.5112 28.3773 18.5112C28.2864 18.5112 28.2409 18.3748 28.1499 18.3748C28.0589 18.3748 28.1954 18.5567 28.1044 18.5567C27.968 18.5567 27.968 18.3748 27.877 18.3748C27.8315 18.3748 27.968 18.5567 27.8315 18.5112C27.6951 18.5112 27.6041 18.2383 27.5131 18.2383C27.4222 18.2383 27.5586 18.4202 27.4222 18.3748C27.2857 18.3748 27.2403 18.0109 26.9219 17.9654Z" fill="#182539"/>
<path d="M37.3438 19.5574C37.3438 19.5574 37.4802 19.33 37.5712 19.148C37.6621 18.9206 37.6621 18.8752 37.7531 18.8297C37.8441 18.7842 37.8441 18.9661 37.935 18.9206C38.026 18.8752 37.8895 18.6023 38.0715 18.5568C38.2534 18.5113 38.1624 18.7387 38.2534 18.6932C38.3444 18.6477 38.2534 18.4658 38.4353 18.3748C38.6173 18.2839 38.5718 18.5568 38.6627 18.5568C38.7537 18.5568 38.7082 18.3294 38.9356 18.2839C39.163 18.2384 39.163 18.3294 39.1176 18.3748C39.0721 18.4203 39.1176 18.5113 39.254 18.4658C39.4359 18.4203 39.4359 18.5568 39.4359 18.6023C39.4359 18.6477 39.4359 18.7387 39.254 18.7842C39.0721 18.8752 39.345 18.8752 39.254 18.9661C39.163 19.0571 39.0721 18.9661 39.0721 19.0116C39.0266 19.0571 39.1176 19.1026 39.0721 19.1026C39.0266 19.148 38.8901 19.0571 38.7992 19.1026C38.7082 19.148 38.9811 19.239 38.8447 19.2845C38.7537 19.33 38.6173 19.239 38.5263 19.239C38.4808 19.2845 38.7082 19.33 38.5718 19.4209C38.4353 19.5119 38.2079 19.33 38.1169 19.3755C38.026 19.4209 38.2534 19.5119 38.1169 19.5574C37.935 19.6938 37.6621 19.4209 37.3438 19.5574Z" fill="#182539"/>
<path d="M36.0156 17.9193C36.0156 17.9193 36.243 17.6009 36.334 17.2825C36.425 16.9642 36.4705 16.9187 36.5614 16.8277C36.6979 16.7367 36.6979 17.0096 36.8343 16.9642C36.9708 16.9187 36.7888 16.5093 37.0162 16.4184C37.2437 16.3274 37.1072 16.6913 37.2891 16.6458C37.4256 16.5548 37.2891 16.2819 37.5165 16.191C37.7894 16.1 37.6985 16.4638 37.8349 16.4638C37.9714 16.4638 37.8804 16.1455 38.1988 16.1C38.5172 16.0545 38.5172 16.1455 38.4717 16.2364C38.4262 16.3274 38.4717 16.4184 38.6991 16.3274C38.9265 16.2364 38.972 16.4638 38.972 16.5093C38.972 16.6003 38.9265 16.6913 38.7446 16.7822C38.5172 16.8732 38.881 16.8732 38.6991 17.0551C38.6081 17.1916 38.4717 17.0551 38.4262 17.1006C38.3807 17.1461 38.5172 17.1916 38.4262 17.2825C38.3352 17.3735 38.1533 17.237 38.0169 17.2825C37.8804 17.328 38.2443 17.4645 38.1078 17.5554C37.9259 17.6464 37.744 17.4645 37.653 17.5099C37.562 17.5554 37.9259 17.6464 37.6985 17.7828C37.5165 17.9193 37.1527 17.6464 37.0617 17.6919C36.9708 17.7374 37.2436 17.8738 37.0617 17.9648C36.9253 18.1012 36.5159 17.6919 36.0156 17.9193Z" fill="#182539"/>
<path d="M33.6567 19.1924C33.6567 19.1924 33.6567 18.9195 33.6112 18.6921C33.5657 18.4647 33.5202 18.4192 33.5657 18.3283C33.6112 18.2373 33.7022 18.3737 33.7476 18.2828C33.7931 18.1918 33.5657 18.0554 33.6567 17.8734C33.7476 17.737 33.8386 18.0099 33.8841 17.9189C33.9296 17.828 33.7476 17.737 33.8386 17.5551C33.9296 17.3731 34.066 17.646 34.1115 17.6005C34.2025 17.5096 34.0205 17.4186 34.2025 17.2367C34.3844 17.0548 34.3844 17.1457 34.3844 17.2367C34.3844 17.3277 34.4299 17.3277 34.5663 17.1912C34.6573 17.0548 34.7937 17.1457 34.7937 17.1912C34.8392 17.2367 34.8392 17.2822 34.7483 17.4186C34.6573 17.5551 34.8847 17.4186 34.8392 17.6005C34.8392 17.6915 34.7028 17.6915 34.7028 17.737C34.7028 17.7825 34.7937 17.7825 34.7483 17.828C34.7028 17.9189 34.5663 17.9189 34.5208 18.0099C34.4754 18.1009 34.7028 18.0099 34.6573 18.1463C34.6118 18.2828 34.4299 18.2373 34.3844 18.2828C34.3389 18.3737 34.6118 18.2373 34.5208 18.4192C34.4299 18.6012 34.157 18.5557 34.1115 18.6012C34.066 18.6921 34.2934 18.6466 34.2479 18.7831C34.2025 18.965 33.8386 18.8741 33.6567 19.1924Z" fill="#182539"/>
<path d="M33.0625 22.7856C33.0625 22.7856 33.2899 22.5127 33.3809 22.2398C33.4718 21.9669 33.5173 21.876 33.6083 21.8305C33.7447 21.785 33.7447 22.0124 33.8357 21.9669C33.9267 21.9215 33.8357 21.5576 34.0631 21.4666C34.2905 21.3757 34.1541 21.7395 34.2905 21.6486C34.427 21.5576 34.2905 21.3302 34.5179 21.2392C34.7454 21.1483 34.6544 21.5121 34.7908 21.5121C34.9273 21.5121 34.8363 21.1937 35.1547 21.1937C35.4731 21.1483 35.4276 21.2392 35.3821 21.3302C35.3366 21.4212 35.3366 21.4666 35.564 21.4211C35.7914 21.3757 35.8369 21.5576 35.8369 21.6031C35.8369 21.694 35.7914 21.7395 35.6095 21.8305C35.3821 21.9215 35.746 21.9215 35.564 22.1034C35.4731 22.1944 35.3366 22.1034 35.2911 22.1489C35.2457 22.1943 35.3821 22.2398 35.2911 22.2853C35.2002 22.3308 35.0182 22.1944 34.9273 22.2853C34.8363 22.3308 35.1547 22.4672 34.9728 22.5127C34.7908 22.5582 34.6544 22.4218 34.5634 22.4672C34.4725 22.5127 34.7908 22.6037 34.6089 22.6947C34.427 22.7856 34.1086 22.5127 34.0176 22.6037C33.9267 22.6947 34.1996 22.7856 34.0176 22.8766C33.8812 23.013 33.5173 22.6037 33.0625 22.7856Z" fill="#182539"/>
<path d="M33.5156 20.6489C33.5156 20.6489 33.743 20.376 33.834 20.1031C33.925 19.8302 33.9705 19.7393 34.0614 19.6938C34.1979 19.6483 34.1979 19.8757 34.2888 19.8302C34.3798 19.7847 34.2888 19.4209 34.5162 19.3299C34.7437 19.2389 34.6072 19.6028 34.7437 19.5118C34.8801 19.4209 34.7437 19.1935 34.9711 19.1025C35.1985 19.0115 35.1075 19.3754 35.244 19.3754C35.3804 19.3754 35.2894 19.057 35.6078 19.057C35.9262 19.0115 35.8807 19.1025 35.8352 19.1935C35.7897 19.2844 35.7897 19.3299 36.0172 19.2844C36.2446 19.2389 36.2901 19.4209 36.2901 19.4664C36.2901 19.5118 36.2446 19.6028 36.0626 19.6938C35.8352 19.7847 36.1991 19.7847 36.0172 19.9667C35.9262 20.0576 35.7897 19.9667 35.7443 20.0121C35.6988 20.0576 35.8352 20.1031 35.7443 20.1486C35.6533 20.1941 35.4714 20.0576 35.3804 20.1486C35.2894 20.1941 35.6078 20.3305 35.4259 20.376C35.2894 20.467 35.1075 20.285 35.0165 20.3305C34.9256 20.376 35.244 20.467 35.062 20.5579C34.8801 20.6489 34.5617 20.376 34.4708 20.467C34.3798 20.5579 34.6527 20.6489 34.4708 20.7399C34.3343 20.8763 33.9704 20.467 33.5156 20.6489Z" fill="#182539"/>
<path d="M30.4688 18.2387C30.4688 18.2387 30.6962 17.9659 30.7871 17.693C30.8781 17.4201 30.9236 17.3291 31.0145 17.2836C31.151 17.2381 31.151 17.4655 31.2419 17.4201C31.3329 17.3746 31.2419 17.0107 31.4694 16.9198C31.6968 16.8288 31.5603 17.1927 31.6968 17.1017C31.8332 17.0107 31.6968 16.7833 31.9242 16.6923C32.1516 16.6014 32.0606 16.9652 32.1971 16.9652C32.3335 16.9652 32.2426 16.6469 32.5609 16.6469C32.8793 16.6014 32.8338 16.6923 32.7884 16.7833C32.7429 16.8743 32.7429 16.9198 32.9703 16.8743C33.1977 16.8288 33.2432 17.0107 33.2432 17.0562C33.2432 17.1472 33.1977 17.1927 33.0158 17.2836C32.7884 17.3746 33.1522 17.3746 32.9703 17.5565C32.8793 17.6475 32.7429 17.5565 32.6974 17.602C32.6519 17.6475 32.7884 17.693 32.6974 17.7384C32.6064 17.7839 32.4245 17.6475 32.3335 17.7384C32.2426 17.7839 32.5609 17.9204 32.379 17.9659C32.1971 18.0113 32.0606 17.8749 31.9697 17.9204C31.8787 17.9659 32.1971 18.0568 32.0152 18.1478C31.8332 18.2387 31.5148 17.9659 31.4239 18.0568C31.3329 18.1478 31.6058 18.2387 31.4239 18.3297C31.2874 18.4207 30.9691 18.0568 30.4688 18.2387Z" fill="#182539"/>
</svg>
