<svg width="65" height="64" viewBox="0 0 65 64" fill="none" xmlns="http://www.w3.org/2000/svg">
<path d="M7.86675 63H57.4667C59.1111 63 60.6881 62.3468 61.8508 61.1841C63.0135 60.0213 63.6667 58.4443 63.6667 56.8V7.2C63.6667 5.55566 63.0135 3.97866 61.8508 2.81594C60.6881 1.65321 59.1111 1 57.4667 1H20.2667C18.6224 1 17.0454 1.65321 15.8827 2.81594C14.72 3.97866 14.0667 5.55566 14.0667 7.2V56.8C14.0667 58.4443 13.4135 60.0213 12.2508 61.1841C11.0881 62.3468 9.51109 63 7.86675 63ZM7.86675 63C6.22241 63 4.64541 62.3468 3.48269 61.1841C2.31996 60.0213 1.66675 58.4443 1.66675 56.8V28.9C1.66675 25.49 4.45675 22.7 7.86675 22.7H14.0667M51.2667 38.2H26.4667M41.9667 50.6H26.4667" stroke="#A1C349" stroke-width="2" stroke-linecap="round" stroke-linejoin="round"/>
<path d="M26.4716 13.4024H51.2716V25.8024H26.4716V13.4024Z" stroke="#A1C349" stroke-width="2" stroke-linecap="round" stroke-linejoin="round"/>
</svg>
